<?xml version="1.0" encoding="UTF-8" standalone="no"?>
<!-- Created with Inkscape (http://www.inkscape.org/) -->

<svg
   xmlns:dc="http://purl.org/dc/elements/1.1/"
   xmlns:cc="http://creativecommons.org/ns#"
   xmlns:rdf="http://www.w3.org/1999/02/22-rdf-syntax-ns#"
   xmlns:svg="http://www.w3.org/2000/svg"
   xmlns="http://www.w3.org/2000/svg"
   xmlns:sodipodi="http://sodipodi.sourceforge.net/DTD/sodipodi-0.dtd"
   xmlns:inkscape="http://www.inkscape.org/namespaces/inkscape"
   version="1.1"
   id="svg2"
   xml:space="preserve"
   width="1600"
   height="1066.6667"
   viewBox="0 0 1600 1066.6667"
   sodipodi:docname="logo2.svg"
   inkscape:export-filename="/home/kaell_andrade/Documentos/WEB/Easy Tutorials/img/logo2.svg.png"
   inkscape:export-xdpi="96"
   inkscape:export-ydpi="96"
   inkscape:version="0.92.4 (unknown)"><metadata
     id="metadata8"><rdf:RDF><cc:Work
         rdf:about=""><dc:format>image/svg+xml</dc:format><dc:type
           rdf:resource="http://purl.org/dc/dcmitype/StillImage" /><dc:title></dc:title></cc:Work></rdf:RDF></metadata><defs
     id="defs6" /><sodipodi:namedview
     pagecolor="#ffffff"
     bordercolor="#666666"
     borderopacity="1"
     objecttolerance="10"
     gridtolerance="10"
     guidetolerance="10"
     inkscape:pageopacity="0"
     inkscape:pageshadow="2"
     inkscape:window-width="1366"
     inkscape:window-height="703"
     id="namedview4"
     showgrid="false"
     inkscape:zoom="0.25"
     inkscape:cx="509.54698"
     inkscape:cy="425.38402"
     inkscape:window-x="0"
     inkscape:window-y="0"
     inkscape:window-maximized="1"
     inkscape:current-layer="g10" /><g
     id="g10"
     inkscape:groupmode="layer"
     inkscape:label="ink_ext_XXXXXX"
     transform="matrix(1.3333333,0,0,-1.3333333,0,1066.6667)"><path
       inkscape:connector-curvature="0"
       id="path16"
       style="fill:#0064aa;fill-opacity:1;fill-rule:nonzero;stroke:none;stroke-width:0.1"
       d="m -2241.7916,830.70896 v 0 c -8.346,0 -15.174,6.828 -15.174,15.173 v 0 c 0,8.347 6.828,15.175 15.174,15.175 v 0 c 8.346,0 15.175,-6.828 15.175,-15.175 v 0 c 0,-8.345 -6.829,-15.173 -15.175,-15.173" /><path
       inkscape:connector-curvature="0"
       id="path18"
       style="fill:#0064aa;fill-opacity:1;fill-rule:nonzero;stroke:none;stroke-width:0.1"
       d="m -2129.8196,865.90096 c 0,24.151 -19.76,43.911 -43.911,43.911 h -0 c -24.15,0 -43.91,-19.76 -43.91,-43.911 v 0 -64.166 c 0,0 87.814,9.777 87.822,64.16 0,0.002 0,0.004 0,0.006 v 0" /><path
       inkscape:connector-curvature="0"
       id="path20"
       style="fill:#0064aa;fill-opacity:1;fill-rule:nonzero;stroke:none;stroke-width:0.1"
       d="m -2257.1666,772.63796 c -4.416,0 -8.028,3.613 -8.028,8.028 0,4.416 3.612,8.028 8.028,8.028 4.415,0 8.027,-3.612 8.027,-8.028 0,-4.415 -3.612,-8.028 -8.027,-8.028 z m -30.55,8.035 c 0,-0.002 0,-0.005 0,-0.007 v 0 c 0,-16.802 13.747,-30.55 30.55,-30.55 v 0 c 16.802,0 30.55,13.748 30.55,30.55 v 0 44.642 c 0,0 -61.092,-6.802 -61.1,-44.635" /><path
       inkscape:connector-curvature="0"
       id="path22"
       style="fill:#0064aa;fill-opacity:1;fill-rule:nonzero;stroke:none;stroke-width:0.1"
       d="m -2211.9106,769.16796 c -1.626,0.884 -2.901,2.106 -3.823,3.666 -0.923,1.56 -1.384,3.319 -1.384,5.279 0,1.959 0.466,3.719 1.398,5.279 0.932,1.559 2.211,2.782 3.838,3.667 1.627,0.884 3.447,1.326 5.465,1.326 1.635,0 3.129,-0.285 4.478,-0.856 1.352,-0.57 2.493,-1.398 3.425,-2.482 l -2.397,-2.254 c -1.446,1.559 -3.224,2.339 -5.336,2.339 -1.369,0 -2.596,-0.299 -3.68,-0.899 -1.085,-0.599 -1.932,-1.431 -2.54,-2.496 -0.609,-1.066 -0.913,-2.274 -0.913,-3.624 0,-1.351 0.304,-2.559 0.913,-3.624 0.608,-1.066 1.455,-1.897 2.54,-2.497 1.084,-0.599 2.311,-0.898 3.68,-0.898 2.112,0 3.89,0.789 5.336,2.368 l 2.397,-2.283 c -0.932,-1.084 -2.079,-1.911 -3.438,-2.482 -1.361,-0.571 -2.859,-0.856 -4.494,-0.856 -2.017,0 -3.838,0.442 -5.465,1.327" /><path
       inkscape:connector-curvature="0"
       id="path24"
       style="fill:#0064aa;fill-opacity:1;fill-rule:nonzero;stroke:none;stroke-width:0.1"
       d="m -2182.4486,771.99196 c 1.065,0.6 1.901,1.436 2.51,2.511 0.61,1.075 0.913,2.278 0.913,3.61 0,1.331 -0.303,2.534 -0.913,3.61 -0.609,1.074 -1.445,1.911 -2.51,2.51 -1.066,0.6 -2.265,0.899 -3.596,0.899 -1.331,0 -2.53,-0.299 -3.595,-0.899 -1.066,-0.599 -1.902,-1.436 -2.511,-2.51 -0.61,-1.076 -0.913,-2.279 -0.913,-3.61 0,-1.332 0.303,-2.535 0.913,-3.61 0.609,-1.075 1.445,-1.911 2.511,-2.511 1.065,-0.599 2.264,-0.898 3.595,-0.898 1.331,0 2.53,0.299 3.596,0.898 z m -9.103,-2.824 c -1.637,0.884 -2.92,2.111 -3.851,3.68 -0.934,1.57 -1.399,3.325 -1.399,5.265 0,1.94 0.465,3.695 1.399,5.264 0.931,1.57 2.214,2.797 3.851,3.682 1.636,0.884 3.471,1.326 5.507,1.326 2.036,0 3.871,-0.442 5.507,-1.326 1.637,-0.885 2.92,-2.108 3.852,-3.667 0.932,-1.56 1.399,-3.32 1.399,-5.279 0,-1.96 -0.467,-3.719 -1.399,-5.279 -0.932,-1.56 -2.215,-2.782 -3.852,-3.666 -1.636,-0.885 -3.471,-1.327 -5.507,-1.327 -2.036,0 -3.871,0.442 -5.507,1.327" /><path
       inkscape:connector-curvature="0"
       id="path26"
       style="fill:#0064aa;fill-opacity:1;fill-rule:nonzero;stroke:none;stroke-width:0.1"
       d="m -2153.0016,768.12596 -0.028,13.24 -6.563,-10.957 h -1.656 l -6.563,10.786 v -13.069 h -3.538 v 19.974 h 3.054 l 7.932,-13.24 7.79,13.24 h 3.053 l 0.029,-19.974 h -3.51" /><path
       inkscape:connector-curvature="0"
       id="path28"
       style="fill:#0064aa;fill-opacity:1;fill-rule:nonzero;stroke:none;stroke-width:0.1"
       d="m -2132.3716,778.05596 c 0.836,0.685 1.255,1.664 1.255,2.939 0,1.274 -0.419,2.254 -1.255,2.939 -0.838,0.685 -2.065,1.027 -3.682,1.027 h -4.337 v -7.932 h 4.337 c 1.617,0 2.844,0.342 3.682,1.027 z m 1.012,9.188 c 1.285,-0.571 2.269,-1.389 2.954,-2.454 0.684,-1.065 1.027,-2.331 1.027,-3.795 0,-1.446 -0.343,-2.706 -1.027,-3.781 -0.685,-1.075 -1.669,-1.898 -2.954,-2.468 -1.284,-0.571 -2.791,-0.856 -4.522,-0.856 h -4.509 v -5.764 h -3.71 v 19.974 h 8.219 c 1.731,0 3.238,-0.286 4.522,-0.856" /><path
       inkscape:connector-curvature="0"
       id="path30"
       style="fill:#0064aa;fill-opacity:1;fill-rule:nonzero;stroke:none;stroke-width:0.1"
       d="m -2112.9406,775.65896 -3.766,8.732 -3.737,-8.732 z m 1.227,-2.91 h -9.986 l -1.969,-4.623 h -3.824 l 8.988,19.974 h 3.652 l 9.018,-19.974 h -3.881 l -1.998,4.623" /><path
       inkscape:connector-curvature="0"
       id="path32"
       style="fill:#0064aa;fill-opacity:1;fill-rule:nonzero;stroke:none;stroke-width:0.1"
       d="m -2085.5476,788.09996 v -19.974 h -3.053 l -11.014,13.525 v -13.525 h -3.681 v 19.974 h 3.053 l 11.013,-13.525 v 13.525 h 3.682" /><path
       inkscape:connector-curvature="0"
       id="path34"
       style="fill:#0064aa;fill-opacity:1;fill-rule:nonzero;stroke:none;stroke-width:0.1"
       d="m -2071.5666,775.17396 v -7.048 h -3.709 v 6.991 l -7.846,12.983 h 3.966 l 5.849,-9.73 5.906,9.73 h 3.653 l -7.819,-12.926" /><path
       inkscape:connector-curvature="0"
       id="path36"
       style="fill:#f6b217;fill-opacity:1;fill-rule:nonzero;stroke:none;stroke-width:0.1"
       d="m -1868.8136,769.56796 -0.319,-0.553 h -76.35 l -38.174,66.121 38.174,66.12 h 0.638 l 8.654,-14.988 9.219,15.969 h 1.215 l -9.826,-17.022 4.637,-8.031 14.463,25.053 h 1.62 l -15.274,-26.455 4.334,-7.506 19.607,33.961 h 2.428 l -20.821,-36.064 3.929,-6.804 24.75,42.868 h 3.239 l -26.37,-45.674 3.574,-6.191 29.944,51.865 h 4.049 l -31.968,-55.371 3.119,-5.402 35.087,60.773 h 4.858 l -37.516,-64.981 3.004,-5.204 37.589,65.105 3.24,-5.607 -37.59,-65.108 z m 3.729,138.701 h -84.446 l -42.224,-73.133 42.224,-73.134 h 84.446 l 42.224,73.134 -42.224,73.133" /><path
       inkscape:connector-curvature="0"
       id="path38"
       style="fill:#f6b217;fill-opacity:1;fill-rule:nonzero;stroke:none;stroke-width:0.1"
       d="m -1981.6176,735.08796 c 0,1.291 -0.965,1.937 -2.896,1.937 h -4.026 v -3.874 h 4.026 c 1.931,0 2.896,0.646 2.896,1.937 z m -6.922,7.575 v -3.702 h 3.528 c 0.869,0 1.537,0.157 2.004,0.471 0.466,0.313 0.699,0.77 0.699,1.371 0,0.613 -0.233,1.076 -0.699,1.39 -0.467,0.313 -1.135,0.47 -2.004,0.47 z m 8.782,-5.705 c 0.435,-0.569 0.652,-1.275 0.652,-2.119 0,-1.164 -0.448,-2.062 -1.342,-2.694 -0.895,-0.633 -2.2,-0.95 -3.912,-0.95 h -6.673 v 13.424 h 6.29 c 1.585,0 2.805,-0.31 3.662,-0.931 0.856,-0.62 1.285,-1.473 1.285,-2.56 0,-0.664 -0.153,-1.252 -0.461,-1.764 -0.307,-0.511 -0.728,-0.907 -1.266,-1.189 0.743,-0.242 1.33,-0.649 1.765,-1.217" /><path
       inkscape:connector-curvature="0"
       id="path40"
       style="fill:#f6b217;fill-opacity:1;fill-rule:nonzero;stroke:none;stroke-width:0.1"
       d="m -1964.7246,741.81896 c -0.562,0.46 -1.386,0.69 -2.473,0.69 h -2.914 v -5.35 h 2.914 c 1.087,0 1.911,0.233 2.473,0.7 0.563,0.467 0.844,1.128 0.844,1.985 0,0.856 -0.281,1.515 -0.844,1.975 z m 0.902,-10.624 -2.743,3.931 c -0.115,-0.012 -0.287,-0.019 -0.517,-0.019 h -3.029 v -3.912 h -2.494 v 13.424 h 5.523 c 1.163,0 2.177,-0.192 3.039,-0.576 0.863,-0.383 1.525,-0.933 1.985,-1.649 0.46,-0.716 0.691,-1.566 0.691,-2.55 0,-1.01 -0.246,-1.88 -0.739,-2.608 -0.492,-0.729 -1.199,-1.273 -2.119,-1.63 l 3.087,-4.411 h -2.684" /><path
       inkscape:connector-curvature="0"
       id="path42"
       style="fill:#f6b217;fill-opacity:1;fill-rule:nonzero;stroke:none;stroke-width:0.1"
       d="m -1946.8706,736.25796 -2.531,5.868 -2.512,-5.868 z m 0.825,-1.956 h -6.712 l -1.323,-3.107 h -2.57 l 6.041,13.424 h 2.455 l 6.059,-13.424 h -2.608 l -1.342,3.107" /><path
       inkscape:connector-curvature="0"
       id="path44"
       style="fill:#f6b217;fill-opacity:1;fill-rule:nonzero;stroke:none;stroke-width:0.1"
       d="m -1924.6266,744.61896 v -13.424 h -2.052 l -7.402,9.09 v -9.09 h -2.474 v 13.424 h 2.052 l 7.402,-9.09 v 9.09 h 2.474" /><path
       inkscape:connector-curvature="0"
       id="path46"
       style="fill:#f6b217;fill-opacity:1;fill-rule:nonzero;stroke:none;stroke-width:0.1"
       d="m -1911.4336,733.30496 c 0.985,0 1.851,0.188 2.598,0.566 0.748,0.377 1.323,0.913 1.726,1.61 0.403,0.697 0.604,1.505 0.604,2.426 0,0.921 -0.201,1.729 -0.604,2.426 -0.403,0.696 -0.978,1.233 -1.726,1.61 -0.747,0.377 -1.613,0.566 -2.598,0.566 h -3.259 v -9.204 z m -5.753,11.314 h 5.869 c 1.431,0 2.703,-0.279 3.815,-0.834 1.112,-0.556 1.976,-1.343 2.589,-2.359 0.613,-1.016 0.921,-2.19 0.921,-3.519 0,-1.33 -0.308,-2.503 -0.921,-3.519 -0.613,-1.016 -1.477,-1.803 -2.589,-2.359 -1.112,-0.556 -2.384,-0.834 -3.815,-0.834 h -5.869 v 13.424" /><path
       inkscape:connector-curvature="0"
       id="path48"
       style="fill:#f6b217;fill-opacity:1;fill-rule:nonzero;stroke:none;stroke-width:0.1"
       d="m -1876.4566,744.61896 v -13.424 h -2.052 l -7.402,9.09 v -9.09 h -2.474 v 13.424 h 2.052 l 7.402,-9.09 v 9.09 h 2.474" /><path
       inkscape:connector-curvature="0"
       id="path50"
       style="fill:#f6b217;fill-opacity:1;fill-rule:nonzero;stroke:none;stroke-width:0.1"
       d="m -1861.1356,736.25796 -2.531,5.868 -2.512,-5.868 z m 0.825,-1.956 h -6.712 l -1.323,-3.107 h -2.569 l 6.04,13.424 h 2.455 l 6.06,-13.424 h -2.609 l -1.342,3.107" /><path
       inkscape:connector-curvature="0"
       id="path52"
       style="fill:#f6b217;fill-opacity:1;fill-rule:nonzero;stroke:none;stroke-width:0.1"
       d="m -1838.4876,731.19496 -0.02,8.898 -4.41,-7.363 h -1.112 l -4.411,7.248 v -8.783 h -2.377 v 13.424 h 2.051 l 5.331,-8.898 5.236,8.898 h 2.051 l 0.019,-13.424 h -2.358" /><path
       inkscape:connector-curvature="0"
       id="path54"
       style="fill:#f6b217;fill-opacity:1;fill-rule:nonzero;stroke:none;stroke-width:0.1"
       d="m -1818.6026,733.28596 v -2.091 h -10.067 v 13.424 h 9.799 v -2.091 h -7.306 v -3.489 h 6.482 v -2.053 h -6.482 v -3.7 h 7.574" /><path
       inkscape:connector-curvature="0"
       id="path56"
       style="fill:#ce5959;fill-opacity:1;fill-rule:nonzero;stroke:none;stroke-width:0.1"
       d="m -2517.9896,906.19096 26.181,-26.181 h 73.031 v -73.03 l 26.181,-26.182 v 125.393 h -125.393" /><path
       inkscape:connector-curvature="0"
       id="path58"
       style="fill:#ce5959;fill-opacity:1;fill-rule:nonzero;stroke:none;stroke-width:0.1"
       d="m -2441.8666,776.52696 h -78.937 v 81.519 h 5.578 v -75.94 h 73.359 z m -98.118,103.483 v -121.206 h 121.207 v 48.176 l -73.031,73.03 h -48.176" /><path
       inkscape:connector-curvature="0"
       id="path60"
       style="fill:#ce5959;fill-opacity:1;fill-rule:nonzero;stroke:none;stroke-width:0.1"
       d="m -2530.2296,731.64396 c 0.103,0 0.196,-0.041 0.279,-0.124 l 0.728,-0.796 c -0.562,-0.652 -1.245,-1.161 -2.047,-1.525 -0.802,-0.364 -1.769,-0.546 -2.9,-0.546 -0.991,0 -1.889,0.171 -2.694,0.513 -0.806,0.342 -1.494,0.821 -2.062,1.438 -0.569,0.617 -1.01,1.356 -1.323,2.22 -0.314,0.863 -0.47,1.812 -0.47,2.847 0,1.036 0.168,1.985 0.503,2.848 0.336,0.863 0.808,1.604 1.415,2.224 0.607,0.62 1.334,1.101 2.181,1.444 0.846,0.341 1.782,0.512 2.804,0.512 1.01,0 1.881,-0.156 2.613,-0.469 0.732,-0.314 1.383,-0.739 1.951,-1.276 l -0.604,-0.853 c -0.045,-0.064 -0.095,-0.117 -0.153,-0.158 -0.058,-0.042 -0.141,-0.063 -0.249,-0.063 -0.084,0 -0.172,0.031 -0.264,0.092 -0.092,0.06 -0.203,0.135 -0.331,0.225 -0.128,0.089 -0.278,0.185 -0.451,0.287 -0.172,0.102 -0.377,0.199 -0.613,0.288 -0.236,0.089 -0.512,0.165 -0.824,0.226 -0.314,0.06 -0.675,0.09 -1.084,0.09 -0.736,0 -1.409,-0.126 -2.019,-0.378 -0.61,-0.253 -1.136,-0.612 -1.577,-1.079 -0.44,-0.466 -0.784,-1.035 -1.03,-1.707 -0.246,-0.671 -0.369,-1.422 -0.369,-2.253 0,-0.857 0.123,-1.62 0.369,-2.291 0.246,-0.671 0.581,-1.239 1.007,-1.702 0.424,-0.464 0.927,-0.817 1.509,-1.06 0.582,-0.242 1.208,-0.364 1.88,-0.364 0.408,0 0.777,0.024 1.103,0.072 0.325,0.048 0.628,0.123 0.905,0.225 0.278,0.102 0.537,0.232 0.777,0.388 0.24,0.157 0.481,0.344 0.724,0.562 0.108,0.095 0.214,0.143 0.316,0.143" /><path
       inkscape:connector-curvature="0"
       id="path62"
       style="fill:#ce5959;fill-opacity:1;fill-rule:nonzero;stroke:none;stroke-width:0.1"
       d="m -2511.1296,735.67096 c 0,0.844 -0.115,1.601 -0.346,2.272 -0.229,0.672 -0.555,1.239 -0.977,1.703 -0.422,0.463 -0.934,0.819 -1.534,1.068 -0.601,0.25 -1.273,0.374 -2.014,0.374 -0.735,0 -1.403,-0.124 -2.004,-0.374 -0.601,-0.249 -1.113,-0.605 -1.539,-1.068 -0.425,-0.464 -0.752,-1.031 -0.982,-1.703 -0.231,-0.671 -0.345,-1.428 -0.345,-2.272 0,-0.843 0.114,-1.6 0.345,-2.267 0.23,-0.668 0.557,-1.234 0.982,-1.697 0.426,-0.464 0.938,-0.819 1.539,-1.065 0.601,-0.246 1.269,-0.369 2.004,-0.369 0.741,0 1.413,0.123 2.014,0.369 0.6,0.246 1.112,0.601 1.534,1.065 0.422,0.463 0.748,1.029 0.977,1.697 0.231,0.667 0.346,1.424 0.346,2.267 z m 1.908,0 c 0,-1.029 -0.163,-1.973 -0.489,-2.833 -0.326,-0.86 -0.786,-1.6 -1.381,-2.22 -0.595,-0.62 -1.309,-1.101 -2.143,-1.443 -0.833,-0.341 -1.756,-0.513 -2.766,-0.513 -1.01,0 -1.931,0.172 -2.761,0.513 -0.831,0.342 -1.544,0.823 -2.139,1.443 -0.594,0.62 -1.054,1.36 -1.38,2.22 -0.327,0.86 -0.489,1.804 -0.489,2.833 0,1.029 0.162,1.974 0.489,2.833 0.326,0.86 0.786,1.601 1.38,2.225 0.595,0.623 1.308,1.107 2.139,1.453 0.83,0.345 1.751,0.517 2.761,0.517 1.01,0 1.933,-0.172 2.766,-0.517 0.834,-0.346 1.548,-0.83 2.143,-1.453 0.595,-0.624 1.055,-1.365 1.381,-2.225 0.326,-0.859 0.489,-1.804 0.489,-2.833" /><path
       inkscape:connector-curvature="0"
       id="path64"
       style="fill:#ce5959;fill-opacity:1;fill-rule:nonzero;stroke:none;stroke-width:0.1"
       d="m -2494.8936,733.28896 c 0.068,-0.17 0.133,-0.341 0.198,-0.514 0.063,0.18 0.13,0.351 0.201,0.514 0.07,0.163 0.15,0.327 0.239,0.493 l 4.65,8.448 c 0.083,0.146 0.17,0.236 0.259,0.268 0.09,0.032 0.218,0.048 0.384,0.048 h 1.371 v -13.74 h -1.63 v 10.096 c 0,0.135 0,0.279 0.01,0.432 0.01,0.153 0.016,0.31 0.028,0.47 l -4.708,-8.591 c -0.159,-0.288 -0.383,-0.432 -0.671,-0.432 h -0.268 c -0.287,0 -0.511,0.144 -0.671,0.432 l -4.814,8.62 c 0.02,-0.167 0.035,-0.33 0.043,-0.49 0.01,-0.159 0.015,-0.306 0.015,-0.441 v -10.096 h -1.63 v 13.74 h 1.371 c 0.166,0 0.294,-0.016 0.384,-0.048 0.089,-0.032 0.176,-0.122 0.259,-0.268 l 4.746,-8.457 c 0.09,-0.154 0.168,-0.315 0.234,-0.484" /><path
       inkscape:connector-curvature="0"
       id="path66"
       style="fill:#ce5959;fill-opacity:1;fill-rule:nonzero;stroke:none;stroke-width:0.1"
       d="m -2477.4086,735.42196 h 2.205 c 0.53,0 0.999,0.07 1.404,0.211 0.406,0.14 0.747,0.337 1.022,0.59 0.274,0.252 0.482,0.554 0.623,0.905 0.14,0.352 0.211,0.739 0.211,1.161 0,0.876 -0.27,1.559 -0.81,2.052 -0.541,0.492 -1.357,0.738 -2.45,0.738 h -2.205 z m 0,-1.477 v -5.139 h -1.851 v 13.74 h 4.056 c 0.869,0 1.625,-0.101 2.267,-0.302 0.643,-0.201 1.175,-0.488 1.597,-0.858 0.422,-0.371 0.736,-0.819 0.944,-1.343 0.208,-0.524 0.312,-1.109 0.312,-1.754 0,-0.64 -0.112,-1.225 -0.336,-1.755 -0.224,-0.531 -0.551,-0.988 -0.982,-1.371 -0.432,-0.384 -0.967,-0.683 -1.607,-0.896 -0.639,-0.215 -1.371,-0.322 -2.195,-0.322 h -2.205" /><path
       inkscape:connector-curvature="0"
       id="path68"
       style="fill:#ce5959;fill-opacity:1;fill-rule:nonzero;stroke:none;stroke-width:0.1"
       d="m -2461.9626,733.90696 h 5.13 l -2.157,5.59 c -0.141,0.345 -0.279,0.776 -0.412,1.294 -0.071,-0.262 -0.139,-0.503 -0.207,-0.724 -0.067,-0.22 -0.132,-0.414 -0.196,-0.58 z m 9.004,-5.101 h -1.439 c -0.166,0 -0.3,0.042 -0.402,0.125 -0.102,0.083 -0.18,0.188 -0.23,0.316 l -1.286,3.317 h -6.165 l -1.284,-3.317 c -0.045,-0.115 -0.122,-0.217 -0.23,-0.307 -0.109,-0.089 -0.243,-0.134 -0.403,-0.134 h -1.438 l 5.494,13.74 h 1.889 l 5.494,-13.74" /><path
       inkscape:connector-curvature="0"
       id="path70"
       style="fill:#ce5959;fill-opacity:1;fill-rule:nonzero;stroke:none;stroke-width:0.1"
       d="m -2445.1026,742.48296 c 0.08,-0.041 0.171,-0.126 0.274,-0.253 l 7.958,-10.355 c -0.019,0.166 -0.031,0.327 -0.038,0.483 -0.01,0.157 -0.01,0.309 -0.01,0.456 v 9.732 h 1.63 v -13.74 h -0.94 c -0.146,0 -0.269,0.026 -0.369,0.077 -0.098,0.051 -0.196,0.137 -0.292,0.259 l -7.949,10.345 c 0.013,-0.159 0.022,-0.316 0.029,-0.469 0.01,-0.154 0.01,-0.295 0.01,-0.422 v -9.79 h -1.63 v 13.74 h 0.958 c 0.167,0 0.29,-0.021 0.369,-0.063" /><path
       inkscape:connector-curvature="0"
       id="path72"
       style="fill:#ce5959;fill-opacity:1;fill-rule:nonzero;stroke:none;stroke-width:0.1"
       d="m -2421.8466,734.27196 v -5.466 h -1.85 v 5.466 l -5.034,8.274 h 1.63 c 0.166,0 0.297,-0.042 0.393,-0.125 0.097,-0.083 0.18,-0.185 0.25,-0.307 l 3.144,-5.34 c 0.128,-0.224 0.236,-0.435 0.322,-0.633 0.086,-0.198 0.164,-0.393 0.235,-0.585 0.069,0.198 0.147,0.397 0.23,0.594 0.083,0.199 0.188,0.407 0.316,0.624 l 3.136,5.34 c 0.057,0.103 0.135,0.2 0.234,0.293 0.1,0.093 0.229,0.139 0.389,0.139 h 1.649 l -5.044,-8.274" /><path
       inkscape:connector-curvature="0"
       id="path74"
       style="fill:#0064aa;fill-opacity:1;fill-rule:nonzero;stroke:none;stroke-width:0.1"
       d="m -1683.3756,491.84996 c 0.453,0 0.848,0.034 1.182,0.105 0.335,0.07 0.621,0.159 0.861,0.266 0.24,0.107 0.441,0.225 0.607,0.353 0.164,0.128 0.313,0.245 0.446,0.353 0.132,0.107 0.255,0.196 0.371,0.266 0.115,0.07 0.24,0.105 0.373,0.105 0.131,0 0.24,-0.023 0.328,-0.068 0.086,-0.045 0.15,-0.097 0.191,-0.154 l 1.412,-1.697 c -0.785,-0.933 -1.714,-1.641 -2.793,-2.124 -1.078,-0.483 -2.302,-0.725 -3.671,-0.725 -1.141,0 -2.149,0.2 -3.03,0.601 -0.879,0.4 -1.619,0.952 -2.222,1.653 -0.602,0.702 -1.059,1.534 -1.368,2.496 -0.31,0.962 -0.464,2 -0.464,3.115 0,1.032 0.115,2.01 0.345,2.935 0.233,0.924 0.559,1.779 0.979,2.564 0.422,0.784 0.928,1.49 1.517,2.117 0.59,0.628 1.244,1.16 1.963,1.598 0.719,0.437 1.49,0.774 2.317,1.009 0.824,0.236 1.687,0.353 2.588,0.353 0.677,0 1.294,-0.064 1.851,-0.192 0.557,-0.128 1.061,-0.305 1.512,-0.532 0.449,-0.227 0.851,-0.498 1.207,-0.811 0.355,-0.314 0.664,-0.661 0.928,-1.041 l -1.411,-1.635 c -0.099,-0.115 -0.214,-0.218 -0.347,-0.309 -0.133,-0.091 -0.305,-0.137 -0.52,-0.137 -0.14,0 -0.269,0.033 -0.385,0.1 -0.115,0.066 -0.232,0.146 -0.353,0.241 -0.119,0.095 -0.254,0.2 -0.402,0.316 -0.149,0.115 -0.327,0.22 -0.532,0.316 -0.207,0.094 -0.453,0.175 -0.738,0.241 -0.283,0.066 -0.621,0.099 -1.008,0.099 -0.759,0 -1.468,-0.161 -2.125,-0.483 -0.656,-0.322 -1.226,-0.782 -1.709,-1.381 -0.482,-0.598 -0.861,-1.325 -1.133,-2.179 -0.273,-0.855 -0.408,-1.811 -0.408,-2.867 0,-0.768 0.092,-1.454 0.278,-2.056 0.185,-0.603 0.439,-1.113 0.761,-1.53 0.323,-0.417 0.707,-0.734 1.153,-0.953 0.445,-0.219 0.929,-0.328 1.449,-0.328" /><path
       inkscape:connector-curvature="0"
       id="path76"
       style="fill:#0064aa;fill-opacity:1;fill-rule:nonzero;stroke:none;stroke-width:0.1"
       d="m -1656.8976,498.80996 c 0,0.743 -0.089,1.418 -0.265,2.024 -0.178,0.607 -0.44,1.127 -0.781,1.561 -0.342,0.434 -0.762,0.768 -1.258,1.003 -0.494,0.235 -1.057,0.353 -1.684,0.353 -0.826,0 -1.564,-0.171 -2.217,-0.514 -0.652,-0.342 -1.207,-0.823 -1.666,-1.443 -0.457,-0.619 -0.808,-1.364 -1.052,-2.235 -0.245,-0.871 -0.366,-1.835 -0.366,-2.892 0,-0.743 0.088,-1.416 0.26,-2.019 0.174,-0.603 0.428,-1.119 0.762,-1.548 0.334,-0.429 0.75,-0.761 1.246,-0.996 0.494,-0.236 1.06,-0.353 1.695,-0.353 0.826,0 1.567,0.168 2.223,0.507 0.658,0.339 1.215,0.818 1.672,1.437 0.459,0.619 0.812,1.362 1.06,2.229 0.246,0.867 0.371,1.828 0.371,2.886 z m 4.137,0.099 c 0,-0.974 -0.113,-1.908 -0.342,-2.799 -0.226,-0.892 -0.548,-1.722 -0.965,-2.489 -0.417,-0.768 -0.921,-1.466 -1.511,-2.094 -0.59,-0.627 -1.252,-1.162 -1.989,-1.603 -0.734,-0.442 -1.531,-0.785 -2.388,-1.028 -0.86,-0.244 -1.764,-0.366 -2.713,-0.366 -1.19,0 -2.256,0.209 -3.201,0.626 -0.946,0.417 -1.748,0.986 -2.408,1.709 -0.663,0.722 -1.168,1.573 -1.518,2.551 -0.352,0.979 -0.527,2.033 -0.527,3.165 0,0.974 0.113,1.909 0.341,2.804 0.227,0.896 0.549,1.728 0.965,2.496 0.418,0.768 0.924,1.465 1.518,2.093 0.594,0.628 1.26,1.162 1.994,1.604 0.734,0.442 1.531,0.784 2.391,1.027 0.857,0.244 1.765,0.366 2.724,0.366 1.18,0 2.242,-0.209 3.188,-0.625 0.945,-0.417 1.748,-0.989 2.404,-1.716 0.656,-0.726 1.16,-1.581 1.51,-2.563 0.351,-0.983 0.527,-2.036 0.527,-3.158" /><path
       inkscape:connector-curvature="0"
       id="path78"
       style="fill:#0064aa;fill-opacity:1;fill-rule:nonzero;stroke:none;stroke-width:0.1"
       d="m -1635.8936,495.05696 c 0.13,0.273 0.27,0.541 0.41,0.805 0.15,0.264 0.3,0.528 0.46,0.793 l 5.52,9.499 c 0.17,0.28 0.37,0.453 0.62,0.52 0.25,0.066 0.49,0.099 0.72,0.099 h 3.17 l -2.23,-18.044 h -3.54 l 1.26,10.501 c 0.03,0.224 0.07,0.469 0.12,0.738 0.05,0.268 0.11,0.546 0.18,0.836 l -5.43,-9.314 c -0.16,-0.281 -0.38,-0.489 -0.64,-0.625 -0.26,-0.136 -0.55,-0.204 -0.87,-0.204 h -0.54 c -0.32,0 -0.59,0.069 -0.83,0.21 -0.23,0.14 -0.4,0.347 -0.49,0.619 l -3.17,9.338 c -0.01,-0.281 -0.03,-0.553 -0.04,-0.817 -0.01,-0.264 -0.03,-0.504 -0.05,-0.718 l -1.243,-10.564 h -3.566 l 2.228,18.032 h 3.071 c 0.17,0 0.33,0 0.46,0 0.13,0 0.25,-0.019 0.35,-0.056 0.11,-0.037 0.19,-0.098 0.27,-0.18 0.07,-0.083 0.13,-0.203 0.18,-0.359 l 3.18,-9.51 c 0.17,-0.521 0.32,-1.053 0.44,-1.599" /><path
       inkscape:connector-curvature="0"
       id="path80"
       style="fill:#0064aa;fill-opacity:1;fill-rule:nonzero;stroke:none;stroke-width:0.1"
       d="m -1612.5636,503.76296 -0.73,-5.919 h 1.95 c 0.57,0 1.06,0.084 1.45,0.254 0.39,0.169 0.71,0.408 0.96,0.718 0.24,0.31 0.41,0.679 0.52,1.108 0.11,0.43 0.16,0.9 0.16,1.412 0,0.355 -0.05,0.681 -0.14,0.978 -0.1,0.298 -0.24,0.554 -0.44,0.768 -0.2,0.215 -0.45,0.382 -0.75,0.502 -0.3,0.12 -0.66,0.179 -1.07,0.179 z m -1.11,-8.953 -0.75,-6.081 h -4.01 l 2.21,18.044 h 5.97 c 1.07,0 1.99,-0.13 2.75,-0.39 0.76,-0.26 1.39,-0.619 1.88,-1.078 0.49,-0.458 0.86,-0.999 1.09,-1.622 0.23,-0.623 0.34,-1.294 0.34,-2.013 0,-0.982 -0.15,-1.893 -0.45,-2.731 -0.3,-0.837 -0.76,-1.562 -1.38,-2.173 -0.62,-0.611 -1.4,-1.09 -2.35,-1.436 -0.95,-0.347 -2.07,-0.52 -3.37,-0.52 h -1.93" /><path
       inkscape:connector-curvature="0"
       id="path82"
       style="fill:#0064aa;fill-opacity:1;fill-rule:nonzero;stroke:none;stroke-width:0.1"
       d="m -1594.2236,495.60196 h 4.54 l -0.88,5.152 c -0.08,0.429 -0.16,0.865 -0.24,1.307 -0.09,0.441 -0.16,0.844 -0.22,1.207 -0.07,-0.198 -0.15,-0.423 -0.26,-0.675 -0.11,-0.252 -0.21,-0.497 -0.32,-0.737 -0.1,-0.239 -0.2,-0.462 -0.29,-0.668 -0.1,-0.207 -0.17,-0.36 -0.21,-0.459 z m 9.9,-6.873 h -3.12 c -0.35,0 -0.63,0.08 -0.84,0.241 -0.21,0.161 -0.33,0.373 -0.38,0.638 l -0.55,3.245 h -6.13 l -1.34,-3.245 c -0.09,-0.232 -0.27,-0.436 -0.53,-0.613 -0.27,-0.178 -0.56,-0.266 -0.88,-0.266 h -3.17 l 8.62,18.044 h 4.13 l 4.19,-18.044" /><path
       inkscape:connector-curvature="0"
       id="path84"
       style="fill:#0064aa;fill-opacity:1;fill-rule:nonzero;stroke:none;stroke-width:0.1"
       d="m -1572.3136,506.75396 c 0.12,-0.012 0.22,-0.041 0.32,-0.086 0.09,-0.046 0.18,-0.11 0.25,-0.192 0.08,-0.083 0.15,-0.19 0.23,-0.322 l 6.32,-11.147 c 0.02,0.289 0.04,0.566 0.08,0.83 0.03,0.265 0.06,0.512 0.08,0.744 l 1.22,10.192 h 3.56 l -2.22,-18.044 h -2.11 c -0.31,0 -0.57,0.045 -0.78,0.136 -0.21,0.091 -0.38,0.268 -0.53,0.532 l -6.31,11.134 c -0.01,-0.231 -0.03,-0.454 -0.05,-0.669 -0.02,-0.215 -0.04,-0.417 -0.06,-0.607 l -1.24,-10.526 h -3.56 l 2.23,18.044 h 2.13 c 0.17,0 0.32,-0.006 0.44,-0.019" /><path
       inkscape:connector-curvature="0"
       id="path86"
       style="fill:#0064aa;fill-opacity:1;fill-rule:nonzero;stroke:none;stroke-width:0.1"
       d="m -1544.3336,495.63896 -0.85,-6.91 h -4.04 l 0.85,6.873 -4.64,11.171 h 3.59 c 0.35,0 0.62,-0.081 0.81,-0.242 0.19,-0.16 0.34,-0.373 0.43,-0.637 l 1.73,-5.462 c 0.12,-0.364 0.22,-0.714 0.32,-1.053 0.09,-0.338 0.17,-0.665 0.24,-0.978 0.15,0.313 0.33,0.638 0.52,0.972 0.19,0.335 0.39,0.688 0.61,1.059 l 3.07,5.462 c 0.12,0.223 0.3,0.425 0.54,0.607 0.24,0.181 0.53,0.272 0.87,0.272 h 3.34 l -7.39,-11.134" /><path
       inkscape:connector-curvature="0"
       id="path88"
       style="fill:#0064aa;fill-opacity:1;fill-rule:nonzero;stroke:none;stroke-width:0.1"
       d="m -1522.6336,525.87996 -56.21,100.405 -35.2,-62.863 21.02,-37.542 h 70.39" /><path
       inkscape:connector-curvature="0"
       id="path90"
       style="fill:#0064aa;fill-opacity:1;fill-rule:nonzero;stroke:none;stroke-width:0.1"
       d="m -1600.4236,525.87996 -17.32,30.935 -17.32,-30.935 z" /><path
       inkscape:connector-curvature="0"
       id="path92"
       style="fill:#0064aa;fill-opacity:1;fill-rule:nonzero;stroke:none;stroke-width:0.1"
       d="m -1619.5236,667.99196 -79.015,-142.112 h 55.299 l 51.366,92.728 -27.65,49.384" /><path
       inkscape:connector-curvature="0"
       id="path94"
       style="fill:#ce5959;fill-opacity:1;fill-rule:nonzero;stroke:none;stroke-width:0.1"
       d="m -1862.7486,582.30196 c -1.191,1.598 -1.785,3.859 -1.785,6.783 v 9.826 c 0,3.015 0.589,5.304 1.768,6.868 1.178,1.564 3.207,2.347 6.086,2.347 2.697,0 4.612,-0.681 5.746,-2.041 1.133,-1.36 1.699,-3.32 1.699,-5.882 v -2.312 h -4.828 v 2.381 c 0,0.974 -0.045,1.739 -0.135,2.294 -0.091,0.556 -0.324,1.009 -0.697,1.36 -0.374,0.351 -0.958,0.527 -1.752,0.527 -0.815,0 -1.427,-0.187 -1.836,-0.561 -0.407,-0.374 -0.673,-0.872 -0.798,-1.495 -0.125,-0.625 -0.187,-1.435 -0.187,-2.432 v -11.934 c 0,-1.564 0.204,-2.692 0.611,-3.383 0.409,-0.691 1.145,-1.037 2.21,-1.037 0.771,0 1.344,0.182 1.718,0.544 0.374,0.363 0.611,0.845 0.714,1.445 0.102,0.601 0.152,1.4 0.152,2.397 v 2.483 h 4.828 v -2.21 c 0,-2.653 -0.555,-4.71 -1.666,-6.172 -1.11,-1.462 -3.037,-2.193 -5.779,-2.193 -2.856,0 -4.879,0.799 -6.069,2.397" /><path
       inkscape:connector-curvature="0"
       id="path96"
       style="fill:#ce5959;fill-opacity:1;fill-rule:nonzero;stroke:none;stroke-width:0.1"
       d="m -1834.2746,584.66596 c 0.385,0.702 0.579,1.722 0.579,3.059 v 12.682 c 0,1.338 -0.188,2.346 -0.562,3.026 -0.374,0.68 -1.128,1.02 -2.261,1.02 -1.133,0 -1.892,-0.346 -2.278,-1.036 -0.386,-0.692 -0.577,-1.695 -0.577,-3.01 v -12.682 c 0,-1.337 0.191,-2.357 0.577,-3.059 0.386,-0.704 1.145,-1.055 2.278,-1.055 1.111,0 1.859,0.351 2.244,1.055 z m -8.364,-2.466 c -1.223,1.53 -1.836,3.768 -1.836,6.716 v 10.335 c 0,2.924 0.613,5.134 1.836,6.63 1.225,1.496 3.265,2.245 6.12,2.245 2.833,0 4.863,-0.749 6.086,-2.245 1.225,-1.496 1.836,-3.706 1.836,-6.63 v -10.335 c 0,-2.925 -0.617,-5.158 -1.852,-6.699 -1.237,-1.541 -3.259,-2.312 -6.07,-2.312 -2.855,0 -4.895,0.765 -6.12,2.295" /><path
       inkscape:connector-curvature="0"
       id="path98"
       style="fill:#ce5959;fill-opacity:1;fill-rule:nonzero;stroke:none;stroke-width:0.1"
       d="m -1822.7816,607.81896 h 5.201 l 3.91,-19.074 4.046,19.074 h 5.066 l 0.51,-27.54 h -3.74 l -0.407,19.142 -3.911,-19.142 h -3.026 l -3.977,19.21 -0.375,-19.21 h -3.774 l 0.477,27.54" /><path
       inkscape:connector-curvature="0"
       id="path100"
       style="fill:#ce5959;fill-opacity:1;fill-rule:nonzero;stroke:none;stroke-width:0.1"
       d="m -1791.3326,596.05496 c 1.36,0 2.278,0.289 2.754,0.867 0.476,0.579 0.714,1.615 0.714,3.111 0,1.088 -0.079,1.921 -0.238,2.499 -0.159,0.578 -0.482,1.014 -0.968,1.309 -0.489,0.295 -1.242,0.442 -2.262,0.442 h -1.938 v -8.228 z m -6.936,11.764 h 8.092 c 4.692,0 7.038,-2.607 7.038,-7.819 0,-4.987 -2.46,-7.48 -7.378,-7.48 h -2.754 v -12.241 h -4.998 v 27.54" /><path
       inkscape:connector-curvature="0"
       id="path102"
       style="fill:#ce5959;fill-opacity:1;fill-rule:nonzero;stroke:none;stroke-width:0.1"
       d="m -1771.3736,589.83396 -1.87,11.559 -1.87,-11.559 z m -4.59,17.985 h 5.371 l 5.509,-27.54 h -4.658 l -1.088,6.358 h -4.794 l -1.122,-6.358 h -4.727 l 5.509,27.54" /><path
       inkscape:connector-curvature="0"
       id="path104"
       style="fill:#ce5959;fill-opacity:1;fill-rule:nonzero;stroke:none;stroke-width:0.1"
       d="m -1760.6306,607.81896 h 3.502 l 6.698,-15.708 v 15.708 h 4.148 v -27.54 h -3.332 l -6.732,16.456 v -16.456 h -4.284 v 27.54" /><path
       inkscape:connector-curvature="0"
       id="path106"
       style="fill:#ce5959;fill-opacity:1;fill-rule:nonzero;stroke:none;stroke-width:0.1"
       d="m -1736.5596,590.78496 -5.576,17.034 h 4.693 l 3.399,-10.914 3.196,10.914 h 4.59 l -5.508,-17.034 v -10.506 h -4.794 v 10.506" /><path
       inkscape:connector-curvature="0"
       id="path108"
       style="fill:#ce5959;fill-opacity:1;fill-rule:nonzero;stroke:none;stroke-width:0.1"
       d="m -1855.0306,568.24296 v -1.437 h -4.08 v -11.192 h -1.71 v 11.192 h -4.098 v 1.437 h 9.888" /><path
       inkscape:connector-curvature="0"
       id="path110"
       style="fill:#ce5959;fill-opacity:1;fill-rule:nonzero;stroke:none;stroke-width:0.1"
       d="m -1850.5196,560.30296 h 4.715 l -1.983,5.137 c -0.129,0.318 -0.255,0.714 -0.379,1.19 -0.065,-0.241 -0.127,-0.462 -0.19,-0.665 -0.061,-0.203 -0.122,-0.381 -0.18,-0.533 z m 8.276,-4.689 h -1.323 c -0.152,0 -0.276,0.038 -0.37,0.115 -0.093,0.076 -0.164,0.173 -0.212,0.291 l -1.18,3.049 h -5.666 l -1.182,-3.049 c -0.041,-0.106 -0.111,-0.2 -0.211,-0.282 -0.099,-0.083 -0.223,-0.124 -0.37,-0.124 h -1.322 l 5.05,12.629 h 1.736 l 5.05,-12.629" /><path
       inkscape:connector-curvature="0"
       id="path112"
       style="fill:#ce5959;fill-opacity:1;fill-rule:nonzero;stroke:none;stroke-width:0.1"
       d="m -1833.6246,556.85696 c 0.34,0 0.653,0.016 0.938,0.048 0.285,0.033 0.554,0.081 0.806,0.146 0.253,0.064 0.491,0.142 0.714,0.233 0.224,0.092 0.446,0.196 0.67,0.313 v 2.785 h -1.956 c -0.113,0 -0.201,0.032 -0.269,0.097 -0.068,0.064 -0.101,0.144 -0.101,0.238 v 0.969 h 3.877 v -4.847 c -0.317,-0.229 -0.648,-0.429 -0.992,-0.599 -0.343,-0.171 -0.711,-0.313 -1.101,-0.427 -0.391,-0.115 -0.81,-0.2 -1.256,-0.256 -0.446,-0.056 -0.931,-0.084 -1.454,-0.084 -0.916,0 -1.757,0.157 -2.521,0.472 -0.763,0.314 -1.422,0.755 -1.973,1.322 -0.553,0.567 -0.983,1.247 -1.291,2.04 -0.309,0.793 -0.463,1.665 -0.463,2.617 0,0.964 0.151,1.842 0.454,2.635 0.303,0.793 0.734,1.473 1.295,2.04 0.561,0.567 1.24,1.006 2.036,1.318 0.796,0.311 1.687,0.467 2.675,0.467 0.499,0 0.963,-0.037 1.392,-0.111 0.429,-0.073 0.827,-0.179 1.194,-0.316 0.367,-0.139 0.707,-0.306 1.018,-0.503 0.312,-0.197 0.602,-0.418 0.872,-0.665 l -0.484,-0.776 c -0.101,-0.158 -0.23,-0.238 -0.388,-0.238 -0.094,0 -0.197,0.033 -0.308,0.097 -0.148,0.083 -0.312,0.182 -0.494,0.3 -0.182,0.117 -0.404,0.23 -0.666,0.339 -0.261,0.109 -0.569,0.201 -0.924,0.278 -0.356,0.076 -0.778,0.114 -1.265,0.114 -0.711,0 -1.354,-0.116 -1.931,-0.348 -0.575,-0.232 -1.065,-0.564 -1.471,-0.996 -0.406,-0.432 -0.717,-0.954 -0.934,-1.568 -0.218,-0.615 -0.326,-1.303 -0.326,-2.067 0,-0.799 0.113,-1.511 0.339,-2.137 0.226,-0.626 0.545,-1.156 0.956,-1.591 0.412,-0.434 0.899,-0.766 1.464,-0.995 0.563,-0.23 1.186,-0.344 1.868,-0.344" /><path
       inkscape:connector-curvature="0"
       id="path114"
       style="fill:#ce5959;fill-opacity:1;fill-rule:nonzero;stroke:none;stroke-width:0.1"
       d="m -1817.6836,557.05096 h 5.464 v -1.437 h -7.174 v 12.629 h 1.71 v -11.192" /><path
       inkscape:connector-curvature="0"
       id="path116"
       style="fill:#ce5959;fill-opacity:1;fill-rule:nonzero;stroke:none;stroke-width:0.1"
       d="m -1806.5446,555.61396 h -1.71 v 12.629 h 1.71 v -12.629" /><path
       inkscape:connector-curvature="0"
       id="path118"
       style="fill:#ce5959;fill-opacity:1;fill-rule:nonzero;stroke:none;stroke-width:0.1"
       d="m -1800.1776,568.18596 c 0.073,-0.039 0.157,-0.117 0.251,-0.234 l 7.315,-9.518 c -0.018,0.153 -0.03,0.301 -0.036,0.445 -0,0.144 -0.01,0.284 -0.01,0.419 v 8.945 h 1.498 v -12.629 h -0.864 c -0.135,0 -0.248,0.024 -0.339,0.071 -0.091,0.047 -0.181,0.126 -0.269,0.238 l -7.306,9.509 c 0.012,-0.147 0.021,-0.291 0.027,-0.432 0.01,-0.141 0.01,-0.27 0.01,-0.388 v -8.998 h -1.498 v 12.629 h 0.882 c 0.153,0 0.266,-0.019 0.339,-0.057" /><path
       inkscape:connector-curvature="0"
       id="path120"
       style="fill:#ce5959;fill-opacity:1;fill-rule:nonzero;stroke:none;stroke-width:0.1"
       d="m -1778.5286,568.24296 v -1.392 h -6.064 v -4.195 h 4.908 v -1.34 h -4.908 v -4.309 h 6.064 v -1.393 h -7.783 v 12.629 h 7.783" /><path
       inkscape:connector-curvature="0"
       id="path122"
       style="fill:#ce5959;fill-opacity:1;fill-rule:nonzero;stroke:none;stroke-width:0.1"
       d="m -1962.5946,652.68396 v -85.667 l 85.666,-24.344 v 85.667 z m 4.868,-6.446 75.93,-21.576 v -75.544 l -75.93,21.577 v 75.543" /><path
       inkscape:connector-curvature="0"
       id="path124"
       style="fill:#ce5959;fill-opacity:1;fill-rule:nonzero;stroke:none;stroke-width:0.1"
       d="m -1916.6856,502.91596 -85.667,24.343 v 85.667 l 85.667,-24.343 v -85.667" /><path
       inkscape:connector-curvature="0"
       id="path126"
       style="fill:#ce5959;fill-opacity:1;fill-rule:nonzero;stroke:none;stroke-width:0.1"
       d="m -1962.5946,652.68396 -39.758,-39.758 85.667,-24.343 39.757,39.757 z m 1.42,-5.466 74.943,-21.296 -31.875,-31.875 -74.943,21.297 31.875,31.874" /><path
       inkscape:connector-curvature="0"
       id="path128"
       style="fill:#ce5959;fill-opacity:1;fill-rule:nonzero;stroke:none;stroke-width:0.1"
       d="m -1911.8636,507.73696 34.935,34.936 -34.935,9.928 z" /><path
       inkscape:connector-curvature="0"
       id="path130"
       style="fill:#f6b217;fill-opacity:1;fill-rule:nonzero;stroke:none;stroke-width:0.1"
       d="m -2254.0016,479.98996 c 0.112,0 0.215,-0.046 0.306,-0.137 l 0.801,-0.875 c -0.619,-0.717 -1.369,-1.276 -2.251,-1.677 -0.882,-0.4 -1.945,-0.6 -3.189,-0.6 -1.09,0 -2.077,0.187 -2.963,0.564 -0.886,0.376 -1.642,0.903 -2.268,1.581 -0.625,0.678 -1.11,1.492 -1.455,2.441 -0.343,0.949 -0.516,1.993 -0.516,3.131 0,1.139 0.184,2.183 0.553,3.132 0.37,0.949 0.888,1.764 1.556,2.446 0.668,0.682 1.467,1.211 2.399,1.587 0.931,0.376 1.959,0.564 3.084,0.564 1.11,0 2.068,-0.172 2.873,-0.517 0.804,-0.344 1.52,-0.812 2.145,-1.402 l -0.664,-0.938 c -0.049,-0.071 -0.105,-0.129 -0.169,-0.174 -0.062,-0.046 -0.154,-0.069 -0.273,-0.069 -0.092,0 -0.189,0.034 -0.29,0.1 -0.103,0.067 -0.224,0.149 -0.365,0.248 -0.14,0.098 -0.305,0.204 -0.495,0.316 -0.19,0.113 -0.415,0.218 -0.675,0.317 -0.26,0.098 -0.562,0.181 -0.907,0.247 -0.344,0.067 -0.741,0.101 -1.191,0.101 -0.809,0 -1.548,-0.139 -2.219,-0.417 -0.672,-0.278 -1.25,-0.673 -1.734,-1.186 -0.486,-0.513 -0.864,-1.139 -1.134,-1.877 -0.271,-0.738 -0.406,-1.564 -0.406,-2.478 0,-0.941 0.135,-1.781 0.406,-2.52 0.27,-0.737 0.64,-1.361 1.107,-1.871 0.467,-0.51 1.021,-0.898 1.66,-1.165 0.64,-0.267 1.329,-0.401 2.067,-0.401 0.45,0 0.854,0.027 1.213,0.08 0.358,0.052 0.69,0.135 0.996,0.247 0.306,0.112 0.591,0.255 0.854,0.427 0.264,0.172 0.529,0.378 0.796,0.617 0.119,0.106 0.236,0.158 0.348,0.158" /><path
       inkscape:connector-curvature="0"
       id="path132"
       style="fill:#f6b217;fill-opacity:1;fill-rule:nonzero;stroke:none;stroke-width:0.1"
       d="m -2232.9986,484.41796 c 0,0.928 -0.126,1.761 -0.379,2.5 -0.254,0.737 -0.612,1.361 -1.076,1.871 -0.464,0.509 -1.027,0.901 -1.687,1.175 -0.661,0.274 -1.399,0.412 -2.214,0.412 -0.808,0 -1.544,-0.138 -2.204,-0.412 -0.661,-0.274 -1.224,-0.666 -1.692,-1.175 -0.468,-0.51 -0.827,-1.134 -1.081,-1.871 -0.253,-0.739 -0.379,-1.572 -0.379,-2.5 0,-0.927 0.126,-1.759 0.379,-2.493 0.254,-0.735 0.613,-1.357 1.081,-1.866 0.468,-0.51 1.031,-0.9 1.692,-1.171 0.66,-0.27 1.396,-0.406 2.204,-0.406 0.815,0 1.553,0.136 2.214,0.406 0.66,0.271 1.223,0.661 1.687,1.171 0.464,0.509 0.822,1.131 1.076,1.866 0.253,0.734 0.379,1.566 0.379,2.493 z m 2.098,0 c 0,-1.131 -0.179,-2.17 -0.538,-3.115 -0.358,-0.946 -0.864,-1.76 -1.518,-2.441 -0.653,-0.682 -1.439,-1.211 -2.357,-1.587 -0.917,-0.376 -1.93,-0.564 -3.041,-0.564 -1.111,0 -2.123,0.188 -3.037,0.564 -0.914,0.376 -1.697,0.905 -2.351,1.587 -0.654,0.681 -1.159,1.495 -1.518,2.441 -0.358,0.945 -0.538,1.984 -0.538,3.115 0,1.132 0.18,2.17 0.538,3.116 0.359,0.946 0.864,1.761 1.518,2.446 0.654,0.686 1.437,1.218 2.351,1.598 0.914,0.379 1.926,0.569 3.037,0.569 1.111,0 2.124,-0.19 3.041,-0.569 0.918,-0.38 1.704,-0.912 2.357,-1.598 0.654,-0.685 1.16,-1.5 1.518,-2.446 0.359,-0.946 0.538,-1.984 0.538,-3.116" /><path
       inkscape:connector-curvature="0"
       id="path134"
       style="fill:#f6b217;fill-opacity:1;fill-rule:nonzero;stroke:none;stroke-width:0.1"
       d="m -2215.1436,481.79796 c 0.075,-0.186 0.146,-0.374 0.216,-0.564 0.07,0.197 0.145,0.385 0.222,0.564 0.077,0.18 0.165,0.36 0.263,0.543 l 5.114,9.289 c 0.092,0.162 0.186,0.26 0.285,0.295 0.099,0.035 0.239,0.053 0.422,0.053 h 1.508 v -15.109 h -1.793 v 11.103 c 0,0.147 0,0.305 0.01,0.474 0.01,0.169 0.018,0.341 0.033,0.517 l -5.178,-9.447 c -0.176,-0.317 -0.422,-0.475 -0.737,-0.475 h -0.296 c -0.317,0 -0.563,0.158 -0.739,0.475 l -5.292,9.478 c 0.021,-0.182 0.037,-0.362 0.047,-0.537 0.011,-0.176 0.016,-0.338 0.016,-0.485 v -11.103 h -1.792 v 15.109 h 1.508 c 0.182,0 0.323,-0.018 0.422,-0.053 0.097,-0.035 0.193,-0.133 0.284,-0.295 l 5.22,-9.299 c 0.097,-0.169 0.184,-0.347 0.257,-0.533" /><path
       inkscape:connector-curvature="0"
       id="path136"
       style="fill:#f6b217;fill-opacity:1;fill-rule:nonzero;stroke:none;stroke-width:0.1"
       d="m -2195.9166,484.14396 h 2.425 c 0.583,0 1.097,0.078 1.545,0.232 0.446,0.155 0.82,0.371 1.122,0.649 0.302,0.277 0.531,0.609 0.685,0.996 0.155,0.387 0.233,0.812 0.233,1.276 0,0.963 -0.297,1.715 -0.892,2.256 -0.594,0.541 -1.491,0.812 -2.693,0.812 h -2.425 z m 0,-1.623 v -5.652 h -2.035 v 15.109 h 4.46 c 0.956,0 1.787,-0.11 2.493,-0.332 0.707,-0.221 1.292,-0.536 1.756,-0.943 0.464,-0.408 0.809,-0.9 1.038,-1.476 0.228,-0.577 0.343,-1.22 0.343,-1.93 0,-0.703 -0.123,-1.346 -0.37,-1.93 -0.246,-0.583 -0.605,-1.086 -1.08,-1.508 -0.474,-0.421 -1.063,-0.75 -1.766,-0.985 -0.703,-0.236 -1.508,-0.353 -2.414,-0.353 h -2.425" /><path
       inkscape:connector-curvature="0"
       id="path138"
       style="fill:#f6b217;fill-opacity:1;fill-rule:nonzero;stroke:none;stroke-width:0.1"
       d="m -2178.9306,482.47896 h 5.641 l -2.372,6.147 c -0.156,0.379 -0.307,0.854 -0.454,1.423 -0.077,-0.289 -0.153,-0.554 -0.227,-0.797 -0.073,-0.242 -0.145,-0.455 -0.216,-0.637 z m 9.901,-5.61 h -1.582 c -0.183,0 -0.331,0.046 -0.443,0.137 -0.112,0.092 -0.197,0.207 -0.253,0.348 l -1.413,3.648 h -6.779 l -1.413,-3.648 c -0.05,-0.126 -0.134,-0.239 -0.253,-0.337 -0.12,-0.099 -0.268,-0.148 -0.444,-0.148 h -1.581 l 6.041,15.109 h 2.078 l 6.042,-15.109" /><path
       inkscape:connector-curvature="0"
       id="path140"
       style="fill:#f6b217;fill-opacity:1;fill-rule:nonzero;stroke:none;stroke-width:0.1"
       d="m -2160.3906,491.90996 c 0.088,-0.046 0.189,-0.139 0.301,-0.28 l 8.751,-11.387 c -0.021,0.183 -0.035,0.36 -0.042,0.532 -0.01,0.173 -0.011,0.34 -0.011,0.501 v 10.702 h 1.793 v -15.109 h -1.033 c -0.162,0 -0.298,0.028 -0.406,0.085 -0.11,0.056 -0.216,0.151 -0.322,0.284 l -8.741,11.377 c 0.014,-0.176 0.025,-0.348 0.033,-0.517 0.01,-0.168 0.01,-0.323 0.01,-0.464 v -10.765 h -1.792 v 15.109 h 1.055 c 0.183,0 0.317,-0.023 0.405,-0.068" /><path
       inkscape:connector-curvature="0"
       id="path142"
       style="fill:#f6b217;fill-opacity:1;fill-rule:nonzero;stroke:none;stroke-width:0.1"
       d="m -2134.8166,482.87896 v -6.01 h -2.035 v 6.01 l -5.535,9.099 h 1.792 c 0.183,0 0.327,-0.045 0.433,-0.137 0.105,-0.091 0.196,-0.204 0.273,-0.337 l 3.459,-5.873 c 0.141,-0.246 0.258,-0.478 0.353,-0.696 0.095,-0.218 0.181,-0.432 0.259,-0.643 0.077,0.218 0.161,0.436 0.252,0.654 0.092,0.218 0.207,0.446 0.348,0.685 l 3.448,5.873 c 0.064,0.112 0.15,0.219 0.258,0.321 0.11,0.102 0.252,0.153 0.428,0.153 h 1.813 l -5.546,-9.099" /><path
       inkscape:connector-curvature="0"
       id="path144"
       style="fill:#f6b217;fill-opacity:1;fill-rule:nonzero;stroke:none;stroke-width:0.1"
       d="m -2216.1366,517.33396 c 0.876,-0.11 1.758,-0.2 2.643,-0.277 13.633,6.053 25.144,16.027 33.182,28.979 7.791,12.555 11.631,26.792 11.288,41.227 l -14.869,14.869 c 6.042,-31.391 -5.811,-64.619 -32.244,-84.798" /><path
       inkscape:connector-curvature="0"
       id="path146"
       style="fill:#f6b217;fill-opacity:1;fill-rule:nonzero;stroke:none;stroke-width:0.1"
       d="m -2221.4426,518.02096 c 0.134,-0.025 0.269,-0.053 0.405,-0.078 28.342,20.199 40.498,55.455 32.475,87.882 l -21.175,21.176 c 17.008,-34.59 13.572,-77.256 -11.705,-108.98" /><path
       inkscape:connector-curvature="0"
       id="path148"
       style="fill:#f6b217;fill-opacity:1;fill-rule:nonzero;stroke:none;stroke-width:0.1"
       d="m -2149.6146,569.80696 c -3.581,-16.16 -12.195,-30.7 -24.915,-41.763 -3.717,-3.232 -7.684,-6.067 -11.842,-8.506 20.786,6.053 37.612,21.646 45.354,41.672 l -8.597,8.597" /><path
       inkscape:connector-curvature="0"
       id="path150"
       style="fill:#f6b217;fill-opacity:1;fill-rule:nonzero;stroke:none;stroke-width:0.1"
       d="m -2152.9846,572.19996 -12.226,12.227 c -0.19,-13.979 -4.169,-27.691 -11.731,-39.876 -7.387,-11.905 -17.608,-21.378 -29.676,-27.754 0.019,0 0.038,-10e-4 0.056,-10e-4 v 0 c 2.778,0 5.518,0.167 8.212,0.49 22.882,9.347 40.379,29.718 45.365,54.914" /><path
       inkscape:connector-curvature="0"
       id="path152"
       style="fill:#f6b217;fill-opacity:1;fill-rule:nonzero;stroke:none;stroke-width:0.1"
       d="m -2219.6436,635.92996 -14.615,14.615 c -25.91,-10.017 -44.414,-35.234 -44.414,-64.567 v 0 c 0,-32.341 22.492,-59.68 52.605,-67.156 28.061,34.049 29.566,81.718 6.424,117.108" /><path
       inkscape:connector-curvature="0"
       id="path154"
       style="fill:#f6b217;fill-opacity:1;fill-rule:nonzero;stroke:none;stroke-width:0.1"
       d="m -2119.2756,574.44696 c 0,38.05 -31.131,69.182 -69.181,69.182 v 0 c -8.717,0 -17.069,-1.638 -24.768,-4.614 l 89.335,-89.335 c 2.977,7.699 4.614,16.05 4.614,24.767 v 0" /><path
       inkscape:connector-curvature="0"
       id="path156"
       style="fill:#0064aa;fill-opacity:1;fill-rule:nonzero;stroke:none;stroke-width:0.1"
       d="m -2443.9896,272.81576 c 0.654,0.5352 0.981,1.3141 0.981,2.3383 0,1.025 -0.333,1.8149 -0.997,2.3699 -0.665,0.556 -1.608,0.834 -2.828,0.834 h -4.349 v -6.3418 h 4.381 c 1.221,0 2.158,0.2657 2.812,0.7996 z m -7.193,8.8442 h 4.153 c 1.155,0 2.032,0.256 2.631,0.769 0.599,0.511 0.9,1.247 0.9,2.207 0,0.958 -0.295,1.699 -0.883,2.222 -0.589,0.524 -1.493,0.786 -2.714,0.786 h -4.087 z m 11.623,-3.481 c 0.838,-1.0358 1.258,-2.251 1.258,-3.646 0,-1.9398 -0.648,-3.4699 -1.944,-4.5941 -1.298,-1.1219 -3.178,-1.6828 -5.64,-1.6828 h -9.906 v 23.0819 h 9.71 c 2.332,0 4.124,-0.513 5.378,-1.537 1.253,-1.025 1.88,-2.463 1.88,-4.316 0,-1.438 -0.376,-2.615 -1.128,-3.531 -0.752,-0.915 -1.739,-1.515 -2.959,-1.798 1.394,-0.283 2.511,-0.942 3.351,-1.977" /><path
       inkscape:connector-curvature="0"
       id="path158"
       style="fill:#0064aa;fill-opacity:1;fill-rule:nonzero;stroke:none;stroke-width:0.1"
       d="m -2427.1856,280.41796 h 3.792 c 2.637,0 3.956,1.166 3.956,3.498 0,1.111 -0.322,1.979 -0.964,2.6 -0.643,0.621 -1.64,0.931 -2.992,0.931 h -3.792 z m 7.421,-12.1619 -5.394,8.991 h -2.027 v -8.991 h -4.61 v 23.0819 h 8.795 c 2.681,0 4.724,-0.654 6.13,-1.962 1.406,-1.308 2.108,-3.03 2.108,-5.166 0,-1.743 -0.485,-3.203 -1.454,-4.381 -0.971,-1.177 -2.371,-1.961 -4.201,-2.353 l 5.754,-9.2199 h -5.101" /><path
       inkscape:connector-curvature="0"
       id="path160"
       style="fill:#0064aa;fill-opacity:1;fill-rule:nonzero;stroke:none;stroke-width:0.1"
       d="m -2395.5706,276.39706 -3.401,9.7429 -3.4,-9.7429 z m 1.242,-3.4992 h -9.252 l -1.635,-4.6418 h -4.872 l 8.501,22.8199 h 5.264 l 8.466,-22.8199 h -4.871 l -1.601,4.6418" /><path
       inkscape:connector-curvature="0"
       id="path162"
       style="fill:#0064aa;fill-opacity:1;fill-rule:nonzero;stroke:none;stroke-width:0.1"
       d="m -2362.5516,268.25606 h -4.609 l -10.331,15.6929 v -15.6929 h -4.611 v 23.0819 h 4.611 l 10.331,-15.8241 v 15.8241 h 4.609 v -23.0819" /><path
       inkscape:connector-curvature="0"
       id="path164"
       style="fill:#0064aa;fill-opacity:1;fill-rule:nonzero;stroke:none;stroke-width:0.1"
       d="m -2341.5136,274.33686 c 1.362,1.3082 2.043,3.1391 2.043,5.4921 0,2.376 -0.681,4.218 -2.043,5.526 -1.362,1.307 -3.286,1.961 -5.77,1.961 h -3.204 v -14.9408 h 3.204 c 2.484,0 4.408,0.6539 5.77,1.9617 z m 5.28,-0.5558 c -0.959,-1.7442 -2.349,-3.1 -4.168,-4.0699 -1.821,-0.9704 -3.984,-1.4551 -6.49,-1.4551 h -8.206 v 23.0819 h 8.206 c 2.506,0 4.669,-0.475 6.49,-1.423 1.819,-0.948 3.209,-2.288 4.168,-4.02 0.958,-1.734 1.439,-3.755 1.439,-6.066 0,-2.288 -0.481,-4.305 -1.439,-6.0479" /><path
       inkscape:connector-curvature="0"
       id="path166"
       style="fill:#0064aa;fill-opacity:1;fill-rule:nonzero;stroke:none;stroke-width:0.1"
       d="m -2487.5506,292.27296 c -9.175,0 -18.213,2.431 -26.136,7.029 l 10.101,17.405 c 4.858,-2.818 10.403,-4.309 16.035,-4.309 17.658,0 32.025,14.366 32.025,32.024 0,17.658 -14.367,32.024 -32.025,32.024 -5.631,0 -11.176,-1.491 -16.035,-4.31 l -10.101,17.406 c 7.924,4.598 16.962,7.028 26.136,7.028 28.755,0 52.15,-23.393 52.15,-52.148 0,-28.755 -23.395,-52.149 -52.15,-52.149" /><path
       inkscape:connector-curvature="0"
       id="path168"
       style="fill:#0064aa;fill-opacity:1;fill-rule:nonzero;stroke:none;stroke-width:0.1"
       d="m -2529.8596,307.91996 c 0,11.723 9.501,21.225 21.224,21.225 11.722,0 21.225,-9.502 21.225,-21.225 0,-11.722 -9.503,-21.225 -21.225,-21.225 -11.723,0 -21.224,9.503 -21.224,21.225" /><path
       inkscape:connector-curvature="0"
       id="path170"
       style="fill:#0064aa;fill-opacity:1;fill-rule:nonzero;stroke:none;stroke-width:0.1"
       d="m -2509.9776,255.94006 c -28.708,0 -52.0641,23.3559 -52.0641,52.0639 0,28.709 23.3561,52.064 52.0641,52.064 15.595,0 30.236,-6.904 40.171,-18.941 l -15.52,-12.811 c -6.099,7.39 -15.083,11.628 -24.651,11.628 -17.611,0 -31.9391,-14.328 -31.9391,-31.94 0,-17.611 14.3281,-31.9389 31.9391,-31.9389 8.909,0 17.176,3.5769 23.28,10.0729 l 14.665,-13.7831 c -9.803,-10.4309 -23.633,-16.4148 -37.945,-16.4148" /><path
       inkscape:connector-curvature="0"
       id="path172"
       style="fill:#403449;fill-opacity:1;fill-rule:nonzero;stroke:none;stroke-width:0.1"
       d="m -1719.8236,772.43596 c 0.58,0.474 0.87,1.165 0.87,2.074 0,0.908 -0.295,1.609 -0.885,2.102 -0.59,0.493 -1.426,0.74 -2.509,0.74 h -3.856 v -5.626 h 3.886 c 1.082,0 1.914,0.236 2.494,0.71 z m -6.38,7.845 h 3.682 c 1.025,0 1.803,0.227 2.335,0.681 0.532,0.454 0.797,1.107 0.797,1.957 0,0.851 -0.261,1.509 -0.783,1.973 -0.521,0.463 -1.324,0.695 -2.406,0.695 h -3.625 z m 10.309,-3.089 c 0.744,-0.919 1.117,-1.996 1.117,-3.233 0,-1.721 -0.576,-3.079 -1.726,-4.075 -1.15,-0.996 -2.818,-1.493 -5.003,-1.493 h -8.786 v 20.474 h 8.612 c 2.069,0 3.659,-0.455 4.771,-1.364 1.111,-0.908 1.668,-2.184 1.668,-3.827 0,-1.277 -0.334,-2.32 -1.001,-3.132 -0.667,-0.812 -1.542,-1.344 -2.624,-1.595 1.236,-0.252 2.227,-0.837 2.972,-1.755" /><path
       inkscape:connector-curvature="0"
       id="path174"
       style="fill:#403449;fill-opacity:1;fill-rule:nonzero;stroke:none;stroke-width:0.1"
       d="m -1704.9186,779.17896 h 3.363 c 2.34,0 3.51,1.034 3.51,3.103 0,0.986 -0.286,1.754 -0.855,2.305 -0.572,0.551 -1.456,0.827 -2.655,0.827 h -3.363 z m 6.583,-10.788 -4.785,7.975 h -1.798 v -7.975 h -4.089 v 20.474 h 7.801 c 2.378,0 4.19,-0.58 5.437,-1.74 1.247,-1.16 1.87,-2.688 1.87,-4.582 0,-1.547 -0.43,-2.842 -1.29,-3.886 -0.86,-1.044 -2.102,-1.74 -3.726,-2.088 l 5.103,-8.178 h -4.523" /><path
       inkscape:connector-curvature="0"
       id="path176"
       style="fill:#403449;fill-opacity:1;fill-rule:nonzero;stroke:none;stroke-width:0.1"
       d="m -1676.8756,775.61196 -3.016,8.641 -3.015,-8.641 z m 1.102,-3.103 h -8.207 l -1.45,-4.118 h -4.321 l 7.54,20.242 h 4.669 l 7.512,-20.242 h -4.322 l -1.421,4.118" /><path
       inkscape:connector-curvature="0"
       id="path178"
       style="fill:#403449;fill-opacity:1;fill-rule:nonzero;stroke:none;stroke-width:0.1"
       d="m -1647.5856,768.39096 h -4.089 l -9.164,13.92 v -13.92 h -4.089 v 20.474 h 4.089 l 9.164,-14.036 v 14.036 h 4.089 v -20.474" /><path
       inkscape:connector-curvature="0"
       id="path180"
       style="fill:#403449;fill-opacity:1;fill-rule:nonzero;stroke:none;stroke-width:0.1"
       d="m -1628.9236,773.78496 c 1.21,1.16 1.81,2.784 1.81,4.872 0,2.107 -0.6,3.74 -1.81,4.901 -1.21,1.16 -2.91,1.74 -5.12,1.74 h -2.84 v -13.254 h 2.84 c 2.21,0 3.91,0.581 5.12,1.741 z m 4.68,-0.493 c -0.85,-1.547 -2.08,-2.751 -3.69,-3.611 -1.62,-0.86 -3.54,-1.29 -5.76,-1.29 h -7.28 v 20.474 h 7.28 c 2.22,0 4.14,-0.421 5.76,-1.262 1.61,-0.841 2.84,-2.03 3.69,-3.567 0.85,-1.537 1.28,-3.33 1.28,-5.379 0,-2.031 -0.43,-3.819 -1.28,-5.365" /><path
       inkscape:connector-curvature="0"
       id="path182"
       style="fill:#403449;fill-opacity:1;fill-rule:nonzero;stroke:none;stroke-width:0.1"
       d="m -1673.2136,902.72296 c 0,0 52.79,-19.931 51.67,-48.773 h 0.02 v -48.773 c 0,0 -52.793,19.931 -51.672,48.773 h -0.018 v 48.773" /><path
       inkscape:connector-curvature="0"
       id="path184"
       style="fill:#403449;fill-opacity:1;fill-rule:nonzero;stroke:none;stroke-width:0.1"
       d="m -1574.5036,816.58896 c 9.78,6.731 21.26,11.096 33.53,12.36 v 15.272 c -7.1,-2.727 -13.77,-6.65 -19.74,-11.713 -5.47,-4.637 -10.09,-10.011 -13.79,-15.919" /><path
       inkscape:connector-curvature="0"
       id="path186"
       style="fill:#403449;fill-opacity:1;fill-rule:nonzero;stroke:none;stroke-width:0.1"
       d="m -1580.5036,811.99396 c 4.26,8.633 10.28,16.389 17.85,22.803 6.53,5.539 13.87,9.773 21.68,12.63 v 43.991 c 0,0 -75.18,-28.383 -73.59,-69.454 h -0.02 v -69.454 c 0,0 3.35,1.268 8.62,3.648 -0.02,2.228 0.05,4.468 0.24,6.716 1.63,19.822 11.16,37.135 25.22,49.12" /><path
       inkscape:connector-curvature="0"
       id="path188"
       style="fill:#403449;fill-opacity:1;fill-rule:nonzero;stroke:none;stroke-width:0.1"
       d="m -1587.6536,786.18896 c 0.4,4.874 1.29,9.63 2.63,14.22 -8.77,-10.352 -14.52,-23.423 -15.72,-37.946 -0.11,-1.324 -0.17,-2.644 -0.2,-3.962 4.27,2.057 9.24,4.613 14.46,7.623 -1.31,6.518 -1.73,13.256 -1.17,20.065" /><path
       inkscape:connector-curvature="0"
       id="path190"
       style="fill:#403449;fill-opacity:1;fill-rule:nonzero;stroke:none;stroke-width:0.1"
       d="m -1584.6636,785.94296 c -0.51,-6.171 -0.17,-12.278 0.93,-18.206 20.54,12.288 43.63,31.275 42.73,54.227 h 0.03 v 1.955 c -14.95,-1.653 -28.59,-8.257 -39.08,-18.251 -2.48,-6.229 -4.04,-12.857 -4.61,-19.725" /><path
       inkscape:connector-curvature="0"
       id="path192"
       style="fill:#ce5959;fill-opacity:1;fill-rule:nonzero;stroke:none;stroke-width:0.1"
       d="m -2270.4586,241.91696 v -4.0758 h 2.673 c 0.501,0 0.911,0.0629 1.229,0.1899 0.318,0.1281 0.567,0.2918 0.746,0.4937 0.18,0.2032 0.304,0.4313 0.371,0.6864 0.068,0.2539 0.101,0.5128 0.101,0.7738 0,0.2992 -0.039,0.5691 -0.118,0.809 -0.078,0.239 -0.213,0.441 -0.403,0.6058 -0.192,0.1641 -0.445,0.2922 -0.759,0.3821 -0.314,0.0902 -0.711,0.1351 -1.19,0.1351 z m 0,2.5371 h 1.976 c 0.419,0 0.797,0.0297 1.134,0.0899 0.337,0.0601 0.623,0.1652 0.86,0.314 0.235,0.15 0.415,0.3559 0.539,0.618 0.123,0.2621 0.184,0.591 0.184,0.9879 0,0.3902 -0.049,0.7133 -0.145,0.9723 -0.098,0.257 -0.247,0.4648 -0.449,0.623 -0.203,0.157 -0.459,0.2688 -0.77,0.3367 -0.311,0.0672 -0.679,0.1 -1.105,0.1 h -2.224 z m -3.795,-9.4761 v 16.3589 h 6.019 c 1.129,0 2.091,-0.105 2.885,-0.3148 0.793,-0.209 1.441,-0.5039 1.943,-0.8859 0.501,-0.3821 0.866,-0.8461 1.094,-1.393 0.229,-0.5461 0.343,-1.1563 0.343,-1.8301 0,-0.3672 -0.053,-0.7211 -0.157,-1.0601 -0.106,-0.3411 -0.27,-0.6622 -0.494,-0.9598 -0.225,-0.3 -0.513,-0.5723 -0.865,-0.8152 -0.352,-0.243 -0.775,-0.4551 -1.269,-0.6348 1.078,-0.2609 1.875,-0.6863 2.392,-1.2742 0.516,-0.5879 0.774,-1.3418 0.774,-2.2621 0,-0.6957 -0.134,-1.3438 -0.403,-1.943 -0.27,-0.5988 -0.665,-1.1207 -1.185,-1.5668 -0.52,-0.4449 -1.162,-0.7922 -1.926,-1.043 -0.763,-0.2511 -1.635,-0.3761 -2.616,-0.3761 h -6.535" /><path
       inkscape:connector-curvature="0"
       id="path194"
       style="fill:#ce5959;fill-opacity:1;fill-rule:nonzero;stroke:none;stroke-width:0.1"
       d="m -2251.2356,243.64586 h 1.527 c 0.516,0 0.956,0.0653 1.319,0.1961 0.364,0.132 0.66,0.3121 0.893,0.5449 0.231,0.2321 0.4,0.5043 0.505,0.8141 0.105,0.3109 0.157,0.6461 0.157,1.0051 0,0.7191 -0.233,1.2801 -0.701,1.684 -0.468,0.4039 -1.193,0.6058 -2.173,0.6058 h -1.527 z m 0,-2.6168 v -6.0511 h -3.795 v 16.3589 h 5.322 c 1.183,0 2.191,-0.1207 3.026,-0.364 0.834,-0.2438 1.516,-0.5828 2.043,-1.0168 0.529,-0.434 0.911,-0.9469 1.152,-1.5379 0.239,-0.5922 0.359,-1.2352 0.359,-1.932 0,-0.5313 -0.071,-1.0332 -0.214,-1.5043 -0.142,-0.4707 -0.353,-0.9079 -0.634,-1.3079 -0.281,-0.4011 -0.626,-0.7582 -1.033,-1.0718 -0.408,-0.3153 -0.878,-0.5731 -1.409,-0.775 0.254,-0.1282 0.492,-0.2852 0.713,-0.4723 0.221,-0.1867 0.413,-0.416 0.578,-0.6848 l 3.48,-5.6921 h -3.435 c -0.637,0 -1.093,0.239 -1.37,0.7179 l -2.717,4.7492 c -0.12,0.2098 -0.261,0.3598 -0.421,0.45 -0.161,0.0887 -0.388,0.134 -0.68,0.134 h -0.965" /><path
       inkscape:connector-curvature="0"
       id="path196"
       style="fill:#ce5959;fill-opacity:1;fill-rule:nonzero;stroke:none;stroke-width:0.1"
       d="m -2230.8906,241.23106 h 4.469 l -1.505,4.4808 c -0.097,0.284 -0.211,0.6192 -0.342,1.0051 -0.131,0.386 -0.26,0.8031 -0.387,1.252 -0.12,-0.4571 -0.244,-0.8801 -0.37,-1.2692 -0.128,-0.3886 -0.248,-0.7258 -0.36,-1.0109 z m 10.51,-6.2531 h -2.941 c -0.33,0 -0.602,0.0769 -0.815,0.23 -0.213,0.1532 -0.361,0.35 -0.443,0.5891 l -0.966,2.8519 h -6.221 l -0.966,-2.8519 c -0.074,-0.209 -0.22,-0.3992 -0.437,-0.5672 -0.217,-0.168 -0.482,-0.2519 -0.797,-0.2519 h -2.965 l 6.333,16.3589 h 3.885 l 6.333,-16.3589" /><path
       inkscape:connector-curvature="0"
       id="path198"
       style="fill:#ce5959;fill-opacity:1;fill-rule:nonzero;stroke:none;stroke-width:0.1"
       d="m -2212.1506,251.31386 c 0.113,-0.0137 0.213,-0.0418 0.303,-0.084 0.09,-0.041 0.176,-0.0988 0.259,-0.1726 0.082,-0.0762 0.176,-0.1762 0.28,-0.3043 l 7.771,-9.8239 c -0.03,0.3141 -0.053,0.6188 -0.068,0.9149 -0.015,0.2961 -0.022,0.5742 -0.022,0.8359 v 8.657 h 3.346 v -16.3589 h -1.976 c -0.292,0 -0.539,0.0441 -0.741,0.1339 -0.202,0.0903 -0.398,0.2539 -0.584,0.4942 l -7.714,9.7469 c 0.022,-0.2848 0.041,-0.5641 0.056,-0.8368 0.015,-0.2742 0.022,-0.53 0.022,-0.7691 v -8.7691 h -3.346 v 16.3589 h 1.999 c 0.165,0 0.303,-0.007 0.415,-0.023" /><path
       inkscape:connector-curvature="0"
       id="path200"
       style="fill:#ce5959;fill-opacity:1;fill-rule:nonzero;stroke:none;stroke-width:0.1"
       d="m -2182.1376,243.16306 c 0,0.809 -0.104,1.5379 -0.314,2.1899 -0.209,0.6511 -0.511,1.2031 -0.904,1.6562 -0.393,0.4527 -0.874,0.8008 -1.443,1.0438 -0.568,0.2429 -1.216,0.3652 -1.942,0.3652 h -2.537 v -10.5211 h 2.537 c 0.726,0 1.374,0.1219 1.942,0.3648 0.569,0.243 1.05,0.5922 1.443,1.0442 0.393,0.4531 0.695,1.0051 0.904,1.6558 0.21,0.6512 0.314,1.3852 0.314,2.2012 z m 3.886,0 c 0,-1.1832 -0.204,-2.273 -0.612,-3.273 -0.409,-0.9989 -0.983,-1.8641 -1.724,-2.5942 -0.741,-0.7301 -1.634,-1.2988 -2.678,-1.7058 -1.045,-0.4078 -2.203,-0.6121 -3.475,-0.6121 h -6.356 v 16.3589 h 6.356 c 1.272,0 2.43,-0.2058 3.475,-0.6168 1.044,-0.4121 1.937,-0.9812 2.678,-1.707 0.741,-0.7262 1.315,-1.5891 1.724,-2.5879 0.408,-0.9992 0.612,-2.0871 0.612,-3.2621" /><path
       inkscape:connector-curvature="0"
       id="path202"
       style="fill:#ce5959;fill-opacity:1;fill-rule:nonzero;stroke:none;stroke-width:0.1"
       d="m -2160.7026,251.31386 c 0.112,-0.0137 0.213,-0.0418 0.302,-0.084 0.09,-0.041 0.176,-0.0988 0.259,-0.1726 0.082,-0.0762 0.176,-0.1762 0.281,-0.3043 l 7.77,-9.8239 c -0.03,0.3141 -0.053,0.6188 -0.067,0.9149 -0.016,0.2961 -0.023,0.5742 -0.023,0.8359 v 8.657 h 3.346 v -16.3589 h -1.976 c -0.292,0 -0.539,0.0441 -0.741,0.1339 -0.202,0.0903 -0.397,0.2539 -0.584,0.4942 l -7.714,9.7469 c 0.023,-0.2848 0.041,-0.5641 0.056,-0.8368 0.016,-0.2742 0.022,-0.53 0.022,-0.7691 v -8.7691 h -3.345 v 16.3589 h 1.999 c 0.164,0 0.302,-0.007 0.415,-0.023" /><path
       inkscape:connector-curvature="0"
       id="path204"
       style="fill:#ce5959;fill-opacity:1;fill-rule:nonzero;stroke:none;stroke-width:0.1"
       d="m -2136.9326,241.23106 h 4.469 l -1.505,4.4808 c -0.097,0.284 -0.211,0.6192 -0.342,1.0051 -0.131,0.386 -0.26,0.8031 -0.387,1.252 -0.12,-0.4571 -0.244,-0.8801 -0.37,-1.2692 -0.128,-0.3886 -0.248,-0.7258 -0.36,-1.0109 z m 10.51,-6.2531 h -2.941 c -0.33,0 -0.602,0.0769 -0.815,0.23 -0.213,0.1532 -0.361,0.35 -0.443,0.5891 l -0.966,2.8519 h -6.221 l -0.966,-2.8519 c -0.074,-0.209 -0.22,-0.3992 -0.437,-0.5672 -0.217,-0.168 -0.482,-0.2519 -0.797,-0.2519 h -2.965 l 6.333,16.3589 h 3.885 l 6.333,-16.3589" /><path
       inkscape:connector-curvature="0"
       id="path206"
       style="fill:#ce5959;fill-opacity:1;fill-rule:nonzero;stroke:none;stroke-width:0.1"
       d="m -2111.8096,241.56896 c 0.139,-0.3059 0.272,-0.6219 0.399,-0.9438 0.127,0.3297 0.261,0.6496 0.404,0.9617 0.143,0.3102 0.288,0.6121 0.438,0.9039 l 4.2,8.2731 c 0.074,0.1422 0.151,0.2531 0.229,0.332 0.079,0.0781 0.167,0.136 0.265,0.1742 0.097,0.0379 0.207,0.0559 0.331,0.0559 0.123,0 0.268,0 0.432,0 h 2.897 v -16.348 h -3.346 v 9.4089 c 0,0.4571 0.023,0.95 0.067,1.4821 l -4.334,-8.4098 c -0.135,-0.2621 -0.317,-0.4602 -0.544,-0.5953 -0.229,-0.134 -0.488,-0.202 -0.78,-0.202 h -0.517 c -0.292,0 -0.553,0.068 -0.78,0.202 -0.229,0.1351 -0.411,0.3332 -0.545,0.5953 l -4.357,8.4207 c 0.03,-0.2617 0.052,-0.5219 0.068,-0.7797 0.014,-0.2582 0.022,-0.4961 0.022,-0.7133 v -9.4089 h -3.347 v 16.348 h 2.898 c 0.164,0 0.309,0 0.433,0 0.123,0 0.233,-0.018 0.331,-0.0559 0.096,-0.0382 0.184,-0.0961 0.263,-0.1742 0.078,-0.0789 0.156,-0.1898 0.231,-0.332 l 4.21,-8.307 c 0.15,-0.284 0.294,-0.5797 0.432,-0.8879" /><path
       inkscape:connector-curvature="0"
       id="path208"
       style="fill:#ce5959;fill-opacity:1;fill-rule:nonzero;stroke:none;stroke-width:0.1"
       d="m -2084.4966,251.33686 v -2.9187 h -6.714 v -3.8172 h 5.143 v -2.8078 h -5.143 v -3.8961 h 6.714 v -2.9191 h -10.532 v 16.3589 h 10.532" /><path
       inkscape:connector-curvature="0"
       id="path210"
       style="fill:#ce5959;fill-opacity:1;fill-rule:nonzero;stroke:none;stroke-width:0.1"
       d="m -2114.2166,383.29296 h -131.025 c -3.337,0 -5.422,-3.611 -3.754,-6.501 l 65.512,-113.4711 c 0.834,-1.4449 2.294,-2.1668 3.754,-2.1668 1.459,0 2.919,0.7219 3.753,2.1668 l 65.513,113.4711 c 1.668,2.89 -0.417,6.501 -3.753,6.501 z m -3.101,-6.125 -62.412,-108.0998 -62.412,108.0998 h 124.824" /><path
       inkscape:connector-curvature="0"
       id="path212"
       style="fill:#ce5959;fill-opacity:1;fill-rule:nonzero;stroke:none;stroke-width:0.1"
       d="m -2210.4136,327.95596 19.991,34.625 32.905,-56.993 h -39.982 z m 12.914,46.883 4.13,-7.153 -19.99,-34.626 -4.13,7.153 z m 17.77,48.806 -73.019,-126.474 h 146.039 z" /><path
       inkscape:connector-curvature="0"
       id="path214"
       style="fill:#f6b217;fill-opacity:1;fill-rule:nonzero;stroke:none;stroke-width:0.1"
       d="m -1604.5836,400.24396 c 26.28,-15.615 34.92,-49.577 19.3,-75.856 -5.42,-9.128 -13.06,-16.123 -21.82,-20.718 18.58,0.287 36.59,9.92 46.78,27.07 15.62,26.279 6.97,60.241 -19.31,75.856 -17.15,10.192 -37.57,10.044 -54.03,1.41 9.89,0.153 19.95,-2.338 29.08,-7.762" /><path
       inkscape:connector-curvature="0"
       id="path216"
       style="fill:#f6b217;fill-opacity:1;fill-rule:nonzero;stroke:none;stroke-width:0.1"
       d="m -1667.8526,319.51696 c 2.572,-9.063 6.924,-17.414 12.612,-24.686 4.136,-2.983 8.583,-5.559 13.283,-7.678 -6.748,8.023 -11.866,17.449 -14.787,27.744 -4.012,14.138 -4.125,28.45 -0.817,41.699 -2.314,6.593 -3.755,13.597 -4.169,20.878 -9.325,-17.084 -11.87,-37.702 -6.122,-57.957" /><path
       inkscape:connector-curvature="0"
       id="path218"
       style="fill:#f6b217;fill-opacity:1;fill-rule:nonzero;stroke:none;stroke-width:0.1"
       d="m -1654.0846,315.65196 c 3.337,-11.759 9.656,-22.332 18.041,-30.875 7.95,-2.803 16.49,-4.344 25.39,-4.344 27.52,0 51.62,14.561 65.05,36.392 -11.61,-7.149 -25.29,-11.28 -39.93,-11.28 -31.52,0 -58.568,19.103 -70.216,46.359 -2.245,-11.645 -1.807,-24.014 1.665,-36.252" /><path
       inkscape:connector-curvature="0"
       id="path220"
       style="fill:#f6b217;fill-opacity:1;fill-rule:nonzero;stroke:none;stroke-width:0.1"
       d="m -1661.8506,382.76396 c 0.165,14.306 4.261,27.665 11.265,39.048 -21.831,-13.433 -36.393,-37.538 -36.393,-65.05 0,-21.897 9.236,-41.626 24.006,-55.545 -3.226,5.456 -5.781,11.344 -7.541,17.546 -6.404,22.567 -2.871,45.579 8.663,64.001" /><path
       inkscape:connector-curvature="0"
       id="path222"
       style="fill:#f6b217;fill-opacity:1;fill-rule:nonzero;stroke:none;stroke-width:0.1"
       d="m -1632.8836,392.36096 c 0,0 -18.876,-50.836 31.55,-68.534 19.35,49.823 -31.55,68.534 -31.55,68.534" /><path
       inkscape:connector-curvature="0"
       id="path224"
       style="fill:#f6b217;fill-opacity:1;fill-rule:nonzero;stroke:none;stroke-width:0.1"
       d="m -1689.7506,242.75096 c -1.426,0.775 -2.542,1.8461 -3.35,3.2129 -0.808,1.366 -1.213,2.9082 -1.213,4.625 0,1.716 0.409,3.2582 1.225,4.625 0.816,1.366 1.938,2.4371 3.363,3.2121 1.424,0.775 3.02,1.1629 4.787,1.1629 1.434,0 2.742,-0.25 3.925,-0.75 1.183,-0.5 2.183,-1.2258 3,-2.175 l -2.1,-1.9758 c -1.266,1.3668 -2.825,2.05 -4.674,2.05 -1.201,0 -2.276,-0.2609 -3.226,-0.7871 -0.95,-0.525 -1.692,-1.2539 -2.225,-2.1871 -0.534,-0.934 -0.799,-1.9918 -0.799,-3.175 0,-1.184 0.265,-2.2418 0.799,-3.175 0.533,-0.934 1.275,-1.6629 2.225,-2.1867 0.95,-0.5262 2.025,-0.7891 3.226,-0.7891 1.849,0 3.408,0.6918 4.674,2.0758 l 2.1,-2 c -0.817,-0.9508 -1.821,-1.675 -3.012,-2.175 -1.192,-0.5 -2.504,-0.75 -3.938,-0.75 -1.767,0 -3.362,0.3883 -4.787,1.1621" /><path
       inkscape:connector-curvature="0"
       id="path226"
       style="fill:#f6b217;fill-opacity:1;fill-rule:nonzero;stroke:none;stroke-width:0.1"
       d="m -1658.9386,245.22716 c 0.934,0.5238 1.666,1.2566 2.2,2.1988 0.533,0.941 0.8,1.9961 0.8,3.1629 0,1.166 -0.267,2.2211 -0.8,3.1621 -0.534,0.941 -1.266,1.675 -2.2,2.2 -0.933,0.5262 -1.984,0.7871 -3.15,0.7871 -1.166,0 -2.217,-0.2609 -3.15,-0.7871 -0.934,-0.525 -1.666,-1.259 -2.2,-2.2 -0.533,-0.941 -0.8,-1.9961 -0.8,-3.1621 0,-1.1668 0.267,-2.2219 0.8,-3.1629 0.534,-0.9422 1.266,-1.675 2.2,-2.1988 0.933,-0.5262 1.984,-0.7891 3.15,-0.7891 1.166,0 2.217,0.2629 3.15,0.7891 z m -7.974,-2.4762 c -1.434,0.775 -2.559,1.8512 -3.375,3.2262 -0.818,1.375 -1.226,2.9117 -1.226,4.6117 0,1.7 0.408,3.2371 1.226,4.6121 0.816,1.375 1.941,2.45 3.375,3.225 1.432,0.775 3.041,1.1629 4.824,1.1629 1.783,0 3.392,-0.3879 4.825,-1.1629 1.433,-0.775 2.558,-1.8461 3.375,-3.2121 0.817,-1.3668 1.226,-2.909 1.226,-4.625 0,-1.7168 -0.409,-3.259 -1.226,-4.625 -0.817,-1.3668 -1.942,-2.4379 -3.375,-3.2129 -1.433,-0.7738 -3.042,-1.1621 -4.825,-1.1621 -1.783,0 -3.392,0.3883 -4.824,1.1621" /><path
       inkscape:connector-curvature="0"
       id="path228"
       style="fill:#f6b217;fill-opacity:1;fill-rule:nonzero;stroke:none;stroke-width:0.1"
       d="m -1628.1436,241.83886 -0.02,11.5992 -5.75,-9.5992 h -1.45 l -5.75,9.45 v -11.45 h -3.1 v 17.5 h 2.675 l 6.955,-11.6008 6.82,11.6008 h 2.68 l 0.02,-17.5 h -3.08" /><path
       inkscape:connector-curvature="0"
       id="path230"
       style="fill:#f6b217;fill-opacity:1;fill-rule:nonzero;stroke:none;stroke-width:0.1"
       d="m -1605.0636,250.53886 c 0.73,0.6 1.1,1.4582 1.1,2.5742 0,1.1168 -0.37,1.9758 -1.1,2.575 -0.73,0.6008 -1.81,0.9008 -3.23,0.9008 h -3.79 v -6.95 h 3.79 c 1.42,0 2.5,0.2992 3.23,0.9 z m 0.89,8.05 c 1.12,-0.5 1.98,-1.2168 2.59,-2.1508 0.59,-0.9332 0.89,-2.041 0.89,-3.325 0,-1.266 -0.3,-2.3711 -0.89,-3.3121 -0.61,-0.9422 -1.47,-1.6621 -2.59,-2.1621 -1.13,-0.5 -2.45,-0.75 -3.97,-0.75 h -3.94 v -5.05 h -3.25 v 17.5 h 7.19 c 1.52,0 2.84,-0.25 3.97,-0.75" /><path
       inkscape:connector-curvature="0"
       id="path232"
       style="fill:#f6b217;fill-opacity:1;fill-rule:nonzero;stroke:none;stroke-width:0.1"
       d="m -1583.0436,248.43806 -3.29,7.6508 -3.28,-7.6508 z m 1.08,-2.5492 h -8.75 l -1.72,-4.05 h -3.36 l 7.88,17.5 h 3.2 l 7.9,-17.5 h -3.4 l -1.75,4.05" /><path
       inkscape:connector-curvature="0"
       id="path234"
       style="fill:#f6b217;fill-opacity:1;fill-rule:nonzero;stroke:none;stroke-width:0.1"
       d="m -1554.0436,259.33886 v -17.5 h -2.67 l -9.65,11.8492 v -11.8492 h -3.22 v 17.5 h 2.67 l 9.65,-11.8508 v 11.8508 h 3.22" /><path
       inkscape:connector-curvature="0"
       id="path236"
       style="fill:#f6b217;fill-opacity:1;fill-rule:nonzero;stroke:none;stroke-width:0.1"
       d="m -1536.7936,248.01386 v -6.175 h -3.25 v 6.125 l -6.87,11.375 h 3.47 l 5.13,-8.5258 5.17,8.5258 h 3.2 l -6.85,-11.325" /><path
       inkscape:connector-curvature="0"
       id="path252"
       style="fill:#0064aa;fill-opacity:1;fill-rule:nonzero;stroke:#0064aa;stroke-width:0.90516418;stroke-opacity:1"
       d="M -51.403505,-170.64203 H -206.49431 L -51.403505,-15.549393 Z M -286.24844,64.204621 V -250.39513 H 28.350378 V 64.204621 H -286.24844" /><path
       inkscape:connector-curvature="0"
       id="path254"
       style="fill:#403449;fill-opacity:1;fill-rule:nonzero;stroke:none;stroke-width:0.1"
       d="m -2483.5086,579.63196 1.105,1.913 22.884,39.634 -19.572,33.896 -43.562,-75.443 43.562,-75.443 19.572,33.897 -22.884,39.633 -1.105,1.913" /><path
       inkscape:connector-curvature="0"
       id="path256"
       style="fill:#403449;fill-opacity:1;fill-rule:nonzero;stroke:none;stroke-width:0.1"
       d="m -2506.3946,543.82396 -16.259,-28.159 -36.937,63.967 36.937,63.967 16.259,-28.158 3.313,5.738 -19.572,33.896 -43.5627,-75.443 43.5627,-75.443 19.572,33.897 -3.313,5.738" /><path
       inkscape:connector-curvature="0"
       id="path258"
       style="fill:#403449;fill-opacity:1;fill-rule:nonzero;stroke:none;stroke-width:0.1"
       d="m -2436.5206,588.84896 0.036,-0.02 v 12.167 l -27.472,-47.575 3.489,-6.043 23.947,41.471" /><path
       inkscape:connector-curvature="0"
       id="path260"
       style="fill:#403449;fill-opacity:1;fill-rule:nonzero;stroke:none;stroke-width:0.1"
       d="m -2436.5206,605.48496 0.036,-0.02 v 12.167 l -32.275,-55.893 3.489,-6.043 28.75,49.789" /><path
       inkscape:connector-curvature="0"
       id="path262"
       style="fill:#403449;fill-opacity:1;fill-rule:nonzero;stroke:none;stroke-width:0.1"
       d="m -2474.8766,572.33296 38.356,66.424 0.036,-0.02 v 14.681 l -42.607,-73.786 4.215,-7.299" /><path
       inkscape:connector-curvature="0"
       id="path264"
       style="fill:#403449;fill-opacity:1;fill-rule:nonzero;stroke:none;stroke-width:0.1"
       d="m -2436.5206,622.12096 0.036,-0.02 v 12.168 l -37.078,-64.212 3.49,-6.042 33.552,58.106" /><path
       inkscape:connector-curvature="0"
       id="path266"
       style="fill:#403449;fill-opacity:1;fill-rule:nonzero;stroke:none;stroke-width:0.1"
       d="m -2434.5716,653.41896 v -147.573 l 42.606,73.786 z" /><path
       inkscape:connector-curvature="0"
       id="path268"
       style="fill:#403449;fill-opacity:1;fill-rule:nonzero;stroke:none;stroke-width:0.1"
       d="m -2436.5206,572.21296 0.036,-0.021 v 12.168 l -22.668,-39.257 3.489,-6.043 19.143,33.153" /><path
       inkscape:connector-curvature="0"
       id="path270"
       style="fill:#403449;fill-opacity:1;fill-rule:nonzero;stroke:none;stroke-width:0.1"
       d="m -2436.5206,555.57696 0.036,-0.021 v 12.168 l -17.866,-30.939 3.49,-6.043 14.34,24.835" /><path
       inkscape:connector-curvature="0"
       id="path272"
       style="fill:#403449;fill-opacity:1;fill-rule:nonzero;stroke:none;stroke-width:0.1"
       d="m -2436.4846,521.68496 -4.574,-7.92 4.574,-7.919 z" /><path
       inkscape:connector-curvature="0"
       id="path274"
       style="fill:#403449;fill-opacity:1;fill-rule:nonzero;stroke:none;stroke-width:0.1"
       d="m -2442.3716,516.04096 5.851,10.133 0.036,-0.021 v 8.298 l -8.259,-14.302 2.372,-4.108 v 0" /><path
       inkscape:connector-curvature="0"
       id="path276"
       style="fill:#403449;fill-opacity:1;fill-rule:nonzero;stroke:none;stroke-width:0.1"
       d="m -2436.5206,538.93996 0.036,-0.02 v 12.167 l -13.062,-22.62 3.489,-6.043 9.537,16.516" /><path
       inkscape:connector-curvature="0"
       id="path278"
       style="fill:#403449;fill-opacity:1;fill-rule:nonzero;stroke:none;stroke-width:0.1"
       d="m -2523.1296,469.77296 c 0.751,0.628 1.127,1.513 1.127,2.654 0,1.122 -0.385,2.002 -1.155,2.639 -0.771,0.637 -1.841,0.956 -3.21,0.956 h -4.337 v -7.19 h 4.394 c 1.369,0 2.429,0.314 3.181,0.941 z m -7.575,8.189 h 4.337 c 1.274,0 2.249,0.295 2.925,0.885 0.674,0.589 1.012,1.416 1.012,2.482 0,1.027 -0.333,1.835 -0.999,2.425 -0.666,0.589 -1.682,0.885 -3.053,0.885 h -4.222 z m 10.228,-2.653 c 0.771,-0.913 1.157,-1.988 1.157,-3.225 0,-1.636 -0.557,-2.948 -1.67,-3.937 -1.113,-0.989 -2.725,-1.483 -4.836,-1.483 h -7.475 v 20.114 h 7.36 c 2.017,0 3.548,-0.447 4.594,-1.34 1.046,-0.895 1.57,-2.122 1.57,-3.681 0,-1.294 -0.348,-2.34 -1.041,-3.139 -0.696,-0.799 -1.584,-1.312 -2.668,-1.54 1.236,-0.267 2.239,-0.856 3.009,-1.769" /><path
       inkscape:connector-curvature="0"
       id="path280"
       style="fill:#403449;fill-opacity:1;fill-rule:nonzero;stroke:none;stroke-width:0.1"
       d="m -2507.7656,476.76396 h 3.794 c 2.948,0 4.423,1.293 4.423,3.88 0,2.586 -1.475,3.88 -4.423,3.88 h -3.794 z m 8.074,-10.1 -5.25,8.217 h -2.824 v -8.217 h -2.596 v 20.114 h 6.619 c 2.283,0 3.994,-0.547 5.135,-1.64 1.142,-1.094 1.712,-2.544 1.712,-4.351 0,-1.637 -0.456,-2.953 -1.369,-3.952 -0.913,-0.999 -2.235,-1.622 -3.966,-1.869 l 5.478,-8.302 h -2.939" /><path
       inkscape:connector-curvature="0"
       id="path282"
       style="fill:#403449;fill-opacity:1;fill-rule:nonzero;stroke:none;stroke-width:0.1"
       d="m -2476.9806,473.33996 -3.68,10.157 -3.681,-10.157 z m 0.742,-2.026 h -8.845 l -1.683,-4.65 h -2.797 l 7.448,19.743 h 2.938 l 7.418,-19.743 h -2.796 l -1.683,4.65" /><path
       inkscape:connector-curvature="0"
       id="path284"
       style="fill:#403449;fill-opacity:1;fill-rule:nonzero;stroke:none;stroke-width:0.1"
       d="m -2447.7926,466.66396 h -2.597 l -10.442,15.892 v -15.892 h -2.597 v 20.114 h 2.597 l 10.442,-15.92 v 15.92 h 2.597 v -20.114" /><path
       inkscape:connector-curvature="0"
       id="path286"
       style="fill:#403449;fill-opacity:1;fill-rule:nonzero;stroke:none;stroke-width:0.1"
       d="m -2425.7096,471.02896 c 1.388,1.35 2.082,3.252 2.082,5.706 0,2.454 -0.69,4.361 -2.068,5.721 -1.379,1.359 -3.391,2.04 -6.035,2.04 h -3.594 v -15.493 h 3.594 c 2.625,0 4.632,0.675 6.021,2.026 z m 3.509,0.385 c -0.818,-1.512 -2.022,-2.682 -3.61,-3.509 -1.588,-0.828 -3.495,-1.241 -5.72,-1.241 h -6.391 v 20.114 h 6.391 c 2.225,0 4.132,-0.404 5.72,-1.212 1.588,-0.809 2.792,-1.969 3.61,-3.481 0.817,-1.512 1.227,-3.295 1.227,-5.35 0,-2.035 -0.41,-3.809 -1.227,-5.321" /><text
       xml:space="preserve"
       style="font-style:normal;font-weight:normal;font-size:559.24462891px;line-height:1.25;font-family:sans-serif;letter-spacing:0px;word-spacing:0px;fill:#403449;fill-opacity:1;stroke:none;stroke-width:13.98111629"
       x="931.46484"
       y="-438.5722"
       id="text449"
       transform="scale(1,-1)"><tspan
         sodipodi:role="line"
         id="tspan447"
         x="931.46484"
         y="-438.5722"
         style="fill:#403449;fill-opacity:1;stroke-width:13.98111629">K</tspan></text>
<path
       inkscape:connector-curvature="0"
       id="path248"
       style="fill:#f6b217;fill-opacity:1;fill-rule:nonzero;stroke:none;stroke-width:0.90516418"
       d="M 901.87008,837.94794 H 1041.5278 V 1050.571 H 147.1533 V 156.19646 h 894.3745 V 445.88517 H 901.87008 v 392.06277" /><text
       xml:space="preserve"
       style="font-style:normal;font-weight:normal;font-size:344.93380737px;line-height:1.25;font-family:sans-serif;letter-spacing:0px;word-spacing:0px;fill:#403449;fill-opacity:1;stroke:#403449;stroke-width:8.62334442;stroke-opacity:1"
       x="60.000954"
       y="221.68752"
       id="text469"
       transform="scale(1,-1)"><tspan
         sodipodi:role="line"
         id="tspan467"
         x="60.000954"
         y="221.68752"
         style="fill:#403449;fill-opacity:1;stroke:#403449;stroke-width:8.62334442;stroke-opacity:1">Andrade</tspan></text>
</g></svg>